<svg width="48" height="17" viewBox="0 0 48 17" fill="none" xmlns="http://www.w3.org/2000/svg">
<path d="M5.99331 0.55957C7.11794 0.55957 7.47132 1.34054 7.76781 2.12028C7.89235 2.45139 10.8149 10.1998 10.9027 10.4324C10.9261 10.4973 10.9103 10.6038 10.8073 10.6423C10.7036 10.6803 9.18514 11.2519 9.10106 11.2825C9.01698 11.3138 8.92279 11.2685 8.89244 11.1871C8.86084 11.1069 8.23056 9.41765 8.15976 9.22914H3.82812C3.75985 9.41765 3.12199 11.1106 3.09354 11.1871C3.06446 11.2648 2.97406 11.3174 2.88429 11.2825C2.79452 11.2483 1.27036 10.6766 1.17933 10.6423C1.09209 10.6093 1.05226 10.5132 1.08261 10.4324C1.19008 10.1423 4.06835 2.5181 4.21501 2.12028C4.50075 1.35216 4.86615 0.55957 5.99331 0.55957ZM0.851232 14.4242C0.7602 14.4242 0.6875 14.4976 0.6875 14.587V16.398C0.6875 16.4873 0.7602 16.5596 0.851232 16.5596H11.131C11.2239 16.5596 11.2966 16.4873 11.2966 16.398V14.587C11.2966 14.4976 11.2239 14.4242 11.131 14.4242H0.851232ZM5.98319 3.08975L4.51909 7.3465H7.47132L6.00216 3.08975H5.98319ZM27.953 10.0695C27.7375 10.1399 27.5952 10.157 27.4258 10.157C27.0756 10.157 26.8815 10.023 26.8815 9.67532C26.8815 9.31299 27.128 9.19181 27.6123 9.19181C27.7305 9.19181 27.8468 9.20833 27.9012 9.2267V9.4862C27.9012 9.7659 27.917 9.94952 27.953 10.0695ZM29.1978 10.4844C28.9392 10.1044 28.8716 9.88036 28.8716 9.40113V8.42798C28.8716 7.90407 28.8084 7.71495 28.6655 7.52399C28.4663 7.25347 28.1345 7.13596 27.5244 7.13596C27.0926 7.13596 26.6735 7.18125 26.2677 7.28163L26.4143 7.97323C26.6887 7.9359 26.9763 7.90407 27.1792 7.90407C27.8272 7.90407 27.9012 7.99466 27.9012 8.46532V8.64097C27.757 8.60364 27.5952 8.57671 27.4075 8.57671C26.432 8.57671 25.9168 9.0388 25.9168 9.80385C25.9168 10.5212 26.4674 10.9123 27.1382 10.9123C27.3885 10.9123 27.6502 10.8676 27.8576 10.7856C27.9827 10.7329 28.0371 10.7017 28.1989 10.6001C28.2963 10.7372 28.4916 10.8774 28.5713 10.9037L29.1978 10.4844ZM38.8466 10.0695C38.6298 10.1399 38.49 10.157 38.3194 10.157C37.9679 10.157 37.7713 10.023 37.7713 9.67532C37.7713 9.31299 38.021 9.19181 38.5065 9.19181C38.6247 9.19181 38.7416 9.20833 38.7948 9.2267V9.4862C38.7948 9.7659 38.8099 9.94952 38.8466 10.0695ZM40.0926 10.4844C39.8321 10.1044 39.7658 9.88036 39.7658 9.40113V8.42798C39.7658 7.90407 39.7013 7.71495 39.5572 7.52399C39.3605 7.25347 39.028 7.13596 38.4161 7.13596C37.9849 7.13596 37.5633 7.18125 37.1574 7.28163L37.3022 7.97323C37.5772 7.9359 37.8655 7.90407 38.0741 7.90407C38.7183 7.90407 38.7948 7.99466 38.7948 8.46532V8.64097C38.6506 8.60364 38.49 8.57671 38.2985 8.57671C37.3218 8.57671 36.8047 9.0388 36.8047 9.80385C36.8047 10.5212 37.3566 10.9123 38.0305 10.9123C38.284 10.9123 38.5432 10.8676 38.7486 10.7856C38.8757 10.7329 38.9281 10.7017 39.09 10.6001C39.1886 10.7372 39.3839 10.8774 39.4642 10.9037L40.0926 10.4844ZM47.6875 10.8309C47.6875 10.8309 47.1527 9.72735 47.0218 9.47641C46.8745 9.19365 46.738 8.9984 46.4371 8.92802V8.91211C46.6387 8.87477 46.7993 8.75665 46.975 8.39554C47.1413 8.04362 47.1906 7.96773 47.2886 7.88388C47.3847 7.80064 47.5162 7.83063 47.5162 7.83063L47.5655 7.18003C47.4258 7.16167 47.2709 7.16105 47.111 7.16962C46.8454 7.18492 46.7083 7.25898 46.5774 7.38629C46.475 7.4836 46.4055 7.62927 46.3195 7.79635C46.2285 7.97874 46.1564 8.12563 46.0616 8.31108C45.9674 8.50143 45.9231 8.58711 45.6696 8.58711H45.5046V5.70501H44.5279V10.8309H45.5046V9.35706L45.638 9.35461C45.9181 9.35461 45.9674 9.42255 46.1153 9.70837C46.2885 10.0493 46.6204 10.8309 46.6204 10.8309H47.6875ZM20.1729 10.8309H21.3001L19.5951 5.79069C19.4156 5.73255 19.1937 5.69644 18.9566 5.69644C18.698 5.69644 18.6057 5.72949 18.4035 5.79069L16.5992 10.8309H17.6809C17.6809 10.8309 17.8269 10.389 17.9989 9.84119H19.8676C20.0345 10.3884 20.1729 10.8309 20.1729 10.8309ZM18.2732 8.99596C18.2732 8.99596 18.5855 7.98425 18.6342 7.82696C18.7581 7.41934 18.9465 6.7718 18.9465 6.7718H18.9775C18.9775 6.7718 19.1519 7.44259 19.2657 7.81961C19.3087 7.96956 19.6071 8.99596 19.6071 8.99596H18.2732ZM30.8616 8.41941C30.5171 8.41941 30.2371 8.69177 30.2371 9.02533C30.2371 9.36135 30.5171 9.63187 30.8616 9.63187C31.2068 9.63187 31.4856 9.36135 31.4856 9.02533C31.4856 8.69177 31.2068 8.41941 30.8616 8.41941ZM22.6384 5.70501H21.6591V10.8302H22.6384V5.70501ZM42.0934 7.95059C42.6346 7.96161 42.7016 8.06994 42.7016 8.50938V10.8309H43.672V8.42798C43.672 7.90407 43.6087 7.71495 43.4646 7.52399C43.2655 7.25347 42.8741 7.13596 42.2123 7.13596C41.5573 7.13596 41.1401 7.20329 40.6034 7.35813V10.8309H41.5839V7.99465C41.8412 7.95854 41.8867 7.95059 42.0934 7.95059ZM25.0602 5.61381C24.4483 5.61381 24.1151 5.73133 23.9191 6.00124C23.775 6.1928 23.7112 6.38621 23.7112 6.91134V7.35813H23.225V8.12441H23.7112V10.8309H24.6822L24.6796 8.12441H25.6475V7.35813H24.6796L24.6822 6.94745C24.6822 6.4774 24.7561 6.38621 25.4047 6.38621C25.4749 6.38621 25.5539 6.38988 25.638 6.396L25.791 5.65972C25.5514 5.62911 25.3061 5.61381 25.0602 5.61381ZM32.8511 5.66155C33.1842 5.64258 33.9289 5.61565 34.3961 5.61565C34.4815 5.61565 34.57 5.61626 34.6585 5.62054C35.577 5.62054 36.1036 6.26809 36.1036 7.02824C36.1036 7.54542 35.859 7.88877 35.2856 8.09319C35.9601 8.23764 36.3135 8.74747 36.3135 9.37114C36.3135 9.82895 36.1801 10.1925 35.9354 10.4404C35.6181 10.7427 35.1376 10.9123 34.4979 10.9123C33.9289 10.9123 33.2146 10.8951 32.8511 10.8743V5.66155ZM34.3961 6.50127C34.2343 6.50127 34.0339 6.50433 33.8354 6.51107V7.74188H34.3967C34.6193 7.74188 34.7982 7.6819 34.9202 7.56623C35.0365 7.45728 35.0972 7.30305 35.0972 7.12005C35.0972 6.7265 34.8772 6.50372 34.4682 6.50127H34.3961ZM34.4163 10.0285H34.4587C34.9689 10.0285 35.2811 9.7659 35.2849 9.2371C35.2799 9.04737 35.2047 8.87232 35.07 8.74563C34.9227 8.60241 34.7141 8.52774 34.4694 8.52774H33.8354V10.023C34.0143 10.0266 34.2115 10.0272 34.4163 10.0285Z" fill="#333333"/>
</svg>
