<svg width="55" height="10" viewBox="0 0 55 10" fill="none" xmlns="http://www.w3.org/2000/svg">
<path fill-rule="evenodd" clip-rule="evenodd" d="M28.6297 3.16434L28.6276 1.58641L28.6254 0.00847936H28.0197H27.4141V3.19864V6.38874L28.0038 6.37045L28.5935 6.35209L28.6113 5.51996L28.6289 4.68777L29.105 4.2149C29.5156 3.80699 29.5928 3.7549 29.6663 3.83568C29.7131 3.88726 30.2167 4.48165 30.7852 5.15668L31.8188 6.38396H32.4923C33.0363 6.38396 33.1592 6.3672 33.1321 6.29662C33.1137 6.24855 32.4916 5.45799 31.7496 4.53985C30.5692 3.07904 30.4112 2.85749 30.4853 2.76639C30.5319 2.70907 31.1233 2.07229 31.7996 1.35128L33.0292 0.0403568L32.3734 0.0201464L31.7175 0L30.1736 1.58214L28.6297 3.16434ZM53.6645 0.920556C53.2061 0.480393 52.7748 0.240164 52.2 0.104622C51.7089 -0.0112209 51.2172 -0.0094996 50.725 0.109594C49.7332 0.349695 48.8478 1.14242 48.5001 2.10168C48.4186 2.32654 48.3581 2.68427 48.3399 3.04876C48.3165 3.51984 48.3367 3.71997 48.4435 4.07151C48.5165 4.31187 48.6871 4.67941 48.8227 4.8884C49.2856 5.60207 49.956 6.06685 50.8308 6.28055L51.009 6.32403L50.9902 5.86921L50.9715 5.41438L50.6704 5.30038C50.038 5.06073 49.5216 4.52309 49.3089 3.88254C49.2326 3.65277 49.2106 3.41911 49.2303 3.04531C49.2531 2.61038 49.2918 2.4624 49.4705 2.12718C49.7245 1.65061 50.0623 1.32935 50.5494 1.10092C50.8545 0.957852 50.9929 0.933116 51.4815 0.934391C51.9661 0.935666 52.1117 0.962124 52.4184 1.10462C52.8822 1.32011 53.3272 1.76531 53.5372 2.2239C53.7524 2.69409 53.8038 3.37945 53.6574 3.82714C53.6003 4.00176 53.5535 4.16899 53.5535 4.1987C53.5535 4.29612 54.2022 4.74075 54.26 4.68292C54.2906 4.65232 54.3759 4.45589 54.4494 4.24645C54.62 3.76039 54.6756 3.01701 54.5769 2.54191C54.4547 1.95434 54.1181 1.35613 53.6645 0.920556ZM36.8729 2.0181C36.657 1.80222 36.486 1.70136 36.1701 1.60382C35.4015 1.36639 34.2274 1.46349 33.5345 1.82167C33.3404 1.92202 33.2413 1.97267 33.2158 2.04819C33.189 2.1273 33.243 2.23371 33.353 2.45316C33.4611 2.66897 33.5588 2.85571 33.57 2.86814C33.5811 2.88057 33.7427 2.81675 33.929 2.72635C34.5824 2.40917 35.3109 2.35523 35.7653 2.59023C36.011 2.71729 36.2117 3.03671 36.212 3.30123L36.2122 3.50186L35.1762 3.52902C34.3027 3.55185 34.0952 3.57677 33.8533 3.68764C33.3243 3.93004 33.0233 4.3943 33.0259 4.96338C33.0277 5.36306 33.2045 5.73908 33.5083 5.98951C33.8509 6.27188 34.2765 6.39792 34.8743 6.39397C35.2404 6.39155 35.462 6.35374 35.694 6.2539C35.8688 6.17867 36.0641 6.05907 36.128 5.98811C36.2428 5.86047 36.2445 5.86181 36.276 6.10555L36.3079 6.35209H36.8498H37.3917V4.66258C37.3917 3.18946 37.3767 2.93017 37.275 2.63824C37.2008 2.42555 37.0541 2.19929 36.8729 2.0181ZM41.7589 2.042C41.7589 1.96403 41.1185 1.67745 40.7095 1.57239C40.197 1.4408 39.3893 1.44966 38.9794 1.59132C38.5486 1.74025 38.1352 2.0763 37.9902 2.39546C37.8503 2.70352 37.8349 3.24404 37.9576 3.53776C38.0973 3.87209 38.4639 4.1273 39.0105 4.27068C39.2773 4.34068 39.6247 4.41642 39.7825 4.43893C39.9403 4.4615 40.2197 4.52175 40.4033 4.57282C40.664 4.64531 40.7456 4.69924 40.7756 4.81891C40.876 5.21865 40.5697 5.42764 39.8833 5.42764C39.3578 5.42764 38.876 5.32544 38.4936 5.13284C38.3282 5.04951 38.178 4.98136 38.1598 4.98136C38.1096 4.98136 37.7423 5.72997 37.7423 5.83236C37.7423 5.93596 38.203 6.1473 38.7408 6.2905C39.2454 6.42483 40.2339 6.42489 40.7123 6.29063C41.23 6.14533 41.6734 5.8117 41.8353 5.44568C41.9322 5.22662 41.9574 5.06162 41.9371 4.78015C41.9064 4.35509 41.785 4.15152 41.3996 3.87884C41.2055 3.74152 40.9386 3.658 40.2331 3.51366C39.7298 3.41076 39.2505 3.28223 39.1678 3.22803C38.9733 3.10059 38.9666 2.80234 39.1543 2.6274C39.2296 2.55727 39.4188 2.48076 39.5748 2.45737C40.0055 2.39285 40.4745 2.47209 40.8954 2.68064C41.1043 2.78411 41.296 2.85583 41.3216 2.84002C41.3777 2.80534 41.7589 2.10965 41.7589 2.042ZM46.5796 2.62753C46.4081 2.13477 46.0149 1.76958 45.4771 1.60343C44.7097 1.36639 43.5351 1.46375 42.8427 1.82167C42.646 1.92339 42.547 1.97439 42.5224 2.04974C42.4973 2.12618 42.5487 2.22767 42.6522 2.43257C42.7554 2.63709 42.867 2.82115 42.9002 2.84168C42.9333 2.86215 43.0564 2.82236 43.1736 2.75319C43.2908 2.68401 43.5721 2.5799 43.7987 2.52189C44.2671 2.4019 44.7589 2.42759 45.0698 2.58832C45.321 2.71819 45.5199 3.03588 45.5202 3.30779L45.5204 3.515H44.648C44.0416 3.515 43.6645 3.54617 43.4114 3.61719C42.7365 3.80655 42.3355 4.3032 42.3355 4.94948C42.3355 5.36121 42.5087 5.73577 42.8165 5.98951C43.1523 6.26621 43.5837 6.39678 44.1548 6.39455C44.7223 6.39231 45.0239 6.30688 45.3413 6.0583L45.5765 5.87412L45.5963 6.11307L45.6161 6.35209H46.158H46.6999V4.66258C46.6999 3.17142 46.6857 2.93253 46.5796 2.62753ZM52.448 1.95644C52.3324 1.86827 52.1142 1.75249 51.9632 1.69926C51.3553 1.48472 50.7237 1.66362 50.2868 2.17398C50.1662 2.31487 50.0342 2.54133 49.9935 2.67713C49.8374 3.19813 49.9295 3.74139 50.2416 4.1403C50.3766 4.31289 50.8494 4.66258 50.9478 4.66258C50.9768 4.66258 51.0084 4.12105 51.0179 3.45921L51.0352 2.2559L51.9532 2.98105C52.4581 3.3799 52.8943 3.70626 52.9226 3.70626C53.0065 3.70626 53.0626 3.27241 53.0193 2.95746C52.9697 2.5954 52.7261 2.16856 52.448 1.95644ZM54.3479 5.395L52.9785 4.31869L51.5293 3.17958C51.466 3.12972 51.4496 3.49364 51.4496 4.9556V6.79435L51.8181 6.4298C52.0207 6.22923 52.2014 6.06519 52.2197 6.06519C52.238 6.06519 52.3657 6.30191 52.5036 6.59117C52.6414 6.88042 52.7624 7.12964 52.7725 7.14488C52.7985 7.18421 53.681 6.75087 53.681 6.69872C53.681 6.67494 53.5678 6.41514 53.4293 6.12129L53.1776 5.58703L53.4612 5.53921C53.6172 5.51294 53.8805 5.46972 54.0464 5.4432L54.3479 5.395ZM34.6042 4.3709C34.6996 4.34986 34.8064 4.32309 34.8415 4.31136C34.8766 4.29969 35.1993 4.28783 35.5587 4.28509L36.2122 4.28005V4.57307C36.2122 4.73418 36.1646 4.94667 36.1064 5.04518C36.0482 5.14374 35.8935 5.28457 35.7625 5.35815C35.2716 5.63408 34.5604 5.58531 34.303 5.25812C34.0434 4.92799 34.2024 4.4594 34.6042 4.3709ZM43.9124 4.3709C44.0079 4.34986 44.1146 4.32309 44.1497 4.31136C44.1848 4.29969 44.5075 4.28783 44.8669 4.28509L45.5204 4.28005V4.57014C45.5204 4.72965 45.4802 4.93794 45.431 5.033C45.3178 5.25212 44.9144 5.48075 44.5542 5.53016C44.1818 5.58116 43.7725 5.46309 43.6112 5.25812C43.3516 4.92799 43.5106 4.4594 43.9124 4.3709ZM1.64071 0.44964C2.00169 0.25812 2.53034 0.0835595 2.89661 0.0350421C3.87812 -0.0951453 5.10317 0.266472 5.67326 0.854674L5.88767 1.07584L5.51279 1.45461L5.13798 1.83337L4.91407 1.63675C4.59383 1.3556 4.11675 1.15266 3.66161 1.10389C2.93633 1.02624 2.07845 1.36146 1.6861 1.8759C1.30172 2.37982 1.14922 3.0275 1.26608 3.6597C1.39959 4.38197 1.76114 4.88392 2.37465 5.1988C2.63675 5.33332 2.82138 5.37444 3.26467 5.39701C3.61271 5.41467 3.93448 5.39453 4.11631 5.34359C4.27703 5.29864 4.5726 5.14104 4.77305 4.99345L5.1376 4.7251L5.4994 5.07276C5.69838 5.26402 5.86121 5.44451 5.86121 5.4739C5.86121 5.56035 5.37814 5.94856 5.04458 6.13013C4.8748 6.22251 4.56597 6.34307 4.35819 6.39809C3.90445 6.51814 2.95476 6.53281 2.51408 6.42646C1.65052 6.21811 0.772302 5.56552 0.389837 4.84789C-0.116822 3.89725 -0.13053 2.71689 0.354071 1.76057C0.581102 1.31256 1.19697 0.685023 1.64071 0.44964ZM18.4847 2.18205V1.15005V0.118051H19.0585H19.6323V3.2764V6.43475L19.0744 6.41633L18.5165 6.3979L18.4969 6.16112L18.4773 5.92433L18.2141 6.11496C17.8226 6.39848 17.345 6.51668 16.754 6.47613C16.1696 6.43609 15.699 6.24349 15.2962 5.87957C14.8423 5.4695 14.6328 5.05676 14.5319 4.37369C14.3648 3.24172 14.9922 2.09005 15.9854 1.70555C16.2585 1.59984 16.4915 1.56369 16.9227 1.56031C17.3906 1.55655 17.5553 1.5825 17.8152 1.70102C17.9906 1.7809 18.2129 1.9218 18.3093 2.01418L18.4847 2.18205ZM20.7161 1.07437V0.596212V0.118051H21.3218H21.9274V0.596212V1.07437H21.3218H20.7161ZM23.33 1.58441V0.851231V0.118051H23.9038H24.4776V0.851231V1.58441H25.1152H25.7527V2.06257V2.54073H25.1152H24.4776L24.4779 3.79989C24.4781 4.93549 24.4903 5.07907 24.6023 5.26281C24.7636 5.5272 25.0915 5.5995 25.486 5.45765L25.7625 5.35825L25.888 5.65101C26.0772 6.09226 26.0689 6.17782 25.8235 6.32356C25.6747 6.41199 25.454 6.46076 25.1142 6.48046C24.4878 6.51674 24.0795 6.39063 23.7593 6.06198C23.3566 5.64865 23.33 5.51802 23.33 3.94844V2.54679L22.9316 2.52786L22.5331 2.50886L22.5144 2.04663L22.4956 1.58441H22.9128H23.33ZM7.66229 1.9948C7.91163 1.7846 8.21632 1.65078 8.60267 1.58199C8.88223 1.53213 9.66278 1.55948 9.90097 1.62745C10.0007 1.65595 9.9697 1.70523 9.70773 1.93443C9.5361 2.08457 9.34133 2.30828 9.27496 2.43146C9.1588 2.64714 9.14082 2.65549 8.79285 2.65549C8.18833 2.65549 7.77902 2.94022 7.59235 3.49062C7.54587 3.62763 7.51884 4.20907 7.51884 5.07097V6.43456L6.92911 6.41626L6.33937 6.3979V4.0071V1.61629L6.89723 1.59786L7.45508 1.57944V1.8745V2.16955L7.66229 1.9948ZM9.98124 2.22018C10.3395 1.88138 10.7148 1.68049 11.1701 1.58384C11.5648 1.50006 12.3006 1.56242 12.7059 1.71403C13.1866 1.89394 13.6532 2.32747 13.8917 2.81584C14.0893 3.22062 14.2255 3.91357 14.1673 4.21812L14.1345 4.38962H12.2603H10.3861L10.4827 4.62871C10.6071 4.93639 11.0101 5.30208 11.3308 5.39816C11.6611 5.49717 12.2719 5.48946 12.5715 5.38248C12.7031 5.33555 12.9082 5.22277 13.0274 5.13186L13.244 4.96667L13.5373 5.30993C13.6986 5.4987 13.8306 5.66899 13.8306 5.68825C13.8306 5.76252 13.4682 6.06198 13.2249 6.18879C12.4128 6.61205 11.2806 6.58789 10.4379 6.1293C10.0366 5.91088 9.65469 5.49265 9.44168 5.03833C9.2918 4.71854 9.2721 4.59874 9.2721 4.0071C9.2721 3.40429 9.29033 3.29814 9.45533 2.94099C9.57283 2.68661 9.76154 2.42795 9.98124 2.22018ZM20.7161 6.42978V4.0071V1.58441H21.3218H21.9274V4.0071V6.42978H21.3218H20.7161ZM13.0306 3.48112C12.93 3.14908 12.7008 2.83796 12.4476 2.6896C12.1536 2.51734 11.6169 2.44395 11.3291 2.53672C10.8845 2.6801 10.5645 3.01354 10.4227 3.48112L10.3792 3.62457H11.7267H13.0741L13.0306 3.48112ZM18.3084 3.26167C18.1514 2.9647 17.8633 2.72326 17.5348 2.61329C17.2717 2.52524 16.8628 2.52715 16.6039 2.61769C16.2973 2.72486 16.0079 2.97395 15.8557 3.26167C15.7466 3.46786 15.7139 3.63815 15.7128 4.0071C15.7116 4.40059 15.7396 4.53556 15.8707 4.76935C15.9584 4.92555 16.1476 5.13587 16.2912 5.23667C16.4829 5.37126 16.6542 5.42927 16.9354 5.45471C17.3781 5.49488 17.6997 5.40811 17.979 5.17304C18.0849 5.08398 18.2341 4.89284 18.3107 4.74818C18.418 4.54544 18.4499 4.37579 18.4499 4.0071C18.4499 3.63617 18.4181 3.469 18.3084 3.26167ZM17.0183 8.15116C16.7822 8.15116 16.6358 8.06088 16.6358 7.91527C16.6358 7.81791 16.8017 7.80363 16.8589 7.89614C16.8806 7.93121 16.954 7.9599 17.0221 7.9599C17.0902 7.9599 17.1458 7.93121 17.1458 7.89614C17.1458 7.86108 17.2032 7.83239 17.2733 7.83239C17.3435 7.83239 17.4008 7.86968 17.4008 7.91527C17.4008 8.06088 17.2545 8.15116 17.0183 8.15116ZM29.4706 8.83238C29.5118 8.52559 29.7334 8.28377 30.0321 8.21976C30.429 8.13465 30.7871 8.29754 30.9478 8.63627C31.0393 8.82932 31.0467 8.9122 30.989 9.10455C30.8907 9.43289 30.6616 9.626 30.3257 9.66387C29.7863 9.72469 29.4012 9.3502 29.4706 8.83238ZM12.8105 9.68128V8.9481V8.21491H12.9699C13.1163 8.21491 13.1293 8.23831 13.1293 8.50181V8.78871H13.448H13.7668V8.50181C13.7668 8.23831 13.7798 8.21491 13.9262 8.21491H14.0856V8.9481V9.68128H13.9262C13.7775 9.68128 13.7668 9.66005 13.7668 9.3625V9.04373H13.448H13.1293V9.3625C13.1293 9.66005 13.1186 9.68128 12.9699 9.68128H12.8105ZM14.467 9.63346C14.4664 9.60719 14.6024 9.2772 14.7692 8.90028C15.0284 8.31431 15.0937 8.21491 15.2197 8.21491C15.3444 8.21491 15.4152 8.31833 15.6825 8.89097C15.8562 9.26279 15.9982 9.59272 15.9982 9.62415C15.9982 9.65558 15.9311 9.68128 15.8491 9.68128C15.7518 9.68128 15.6746 9.62581 15.6273 9.52189C15.563 9.38074 15.5156 9.3625 15.2129 9.3625C14.9102 9.3625 14.8628 9.38074 14.7985 9.52189C14.7559 9.61542 14.6726 9.68128 14.597 9.68128C14.5261 9.68128 14.4676 9.65973 14.467 9.63346ZM16.5074 9.68128C16.3883 9.68128 16.3808 9.63703 16.3808 8.94363C16.3808 8.21517 16.3825 8.20631 16.5242 8.22639C16.652 8.24456 16.6711 8.29155 16.6995 8.65763L16.7314 9.06846L17.0502 8.64462C17.274 8.34695 17.4117 8.21989 17.5124 8.21785C17.653 8.21498 17.6559 8.22939 17.6559 8.9481V9.68128H17.4993C17.3496 9.68128 17.3419 9.66151 17.3239 9.23225L17.3052 8.78323L16.9696 9.23225C16.7507 9.52501 16.5899 9.68128 16.5074 9.68128ZM18.1659 9.68128V8.9481V8.21491H18.3253C18.4717 8.21491 18.4847 8.23831 18.4847 8.50181C18.4847 8.74382 18.5041 8.78871 18.6091 8.78871C18.6849 8.78871 18.8108 8.67644 18.931 8.50181C19.0761 8.29085 19.1705 8.21491 19.2879 8.21491C19.3499 8.21491 19.3904 8.2129 19.4029 8.23065C19.4256 8.26266 19.3575 8.35889 19.1613 8.64692L18.9772 8.91705L19.2091 9.2663C19.3366 9.45839 19.441 9.63034 19.441 9.64844C19.441 9.66648 19.3741 9.68128 19.2924 9.68128C19.1894 9.68128 19.0807 9.59342 18.9378 9.39438C18.8154 9.22396 18.6816 9.10748 18.6082 9.10748C18.5043 9.10748 18.4847 9.15307 18.4847 9.39438C18.4847 9.65788 18.4717 9.68128 18.3253 9.68128H18.1659ZM19.7598 9.68128V8.9481V8.21491H20.1974C20.5437 8.21491 20.6702 8.24252 20.8031 8.34708C20.9292 8.44622 20.9711 8.53662 20.9711 8.70952C20.9711 8.85826 20.922 8.99215 20.8325 9.08746C20.7247 9.20216 20.6254 9.23499 20.3862 9.23499H20.0785V9.45813C20.0785 9.65367 20.0588 9.68128 19.9192 9.68128H19.7598ZM21.1624 9.61063C21.1624 9.57181 21.2968 9.24047 21.4612 8.87439C21.7332 8.26847 21.7742 8.21045 21.918 8.22779C22.0513 8.2438 22.1237 8.35141 22.381 8.91622C22.5488 9.2844 22.6875 9.60719 22.6892 9.63346C22.691 9.65973 22.6254 9.68128 22.5434 9.68128C22.4461 9.68128 22.3689 9.62581 22.3216 9.52189C22.2572 9.38074 22.2099 9.3625 21.9072 9.3625C21.6044 9.3625 21.5571 9.38074 21.4927 9.52189C21.4502 9.61542 21.3668 9.68128 21.2912 9.68128C21.2204 9.68128 21.1624 9.64953 21.1624 9.61063ZM23.0248 9.01638C23.0146 8.66821 23.0209 8.34548 23.0387 8.29913C23.0565 8.25285 23.1293 8.21491 23.2005 8.21491C23.3211 8.21491 23.33 8.25444 23.33 8.78871V9.3625H23.5851H23.8401V8.78424C23.8401 8.2211 23.8438 8.20656 23.9835 8.22639C24.1181 8.24552 24.1281 8.28116 24.1454 8.80465L24.1638 9.3625H24.3845H24.6051V8.78424C24.6051 8.2211 24.6089 8.20656 24.7486 8.22639C24.8826 8.24545 24.8932 8.28205 24.9107 8.78367C24.9244 9.17557 24.9558 9.33987 25.0269 9.39189C25.0933 9.44041 25.1179 9.54388 25.1039 9.7157C25.0873 9.91883 25.0584 9.96817 24.9558 9.96817C24.8726 9.96817 24.8213 9.91895 24.8081 9.82651C24.7886 9.68899 24.7623 9.68427 23.9156 9.66712L23.0431 9.6494L23.0248 9.01638ZM25.4977 9.68128V8.94555V8.20975L26.0237 8.2283C26.4405 8.24297 26.5497 8.26662 26.5497 8.34242C26.5497 8.41415 26.4579 8.44284 26.1831 8.45718C25.8417 8.47497 25.8165 8.48708 25.8165 8.63251C25.8165 8.77742 25.8394 8.78871 26.1352 8.78871C26.4115 8.78871 26.454 8.80573 26.454 8.91622C26.454 9.0267 26.4115 9.04373 26.1352 9.04373C25.8394 9.04373 25.8165 9.05501 25.8165 9.19993C25.8165 9.34535 25.8417 9.35746 26.1831 9.37525C26.5078 9.39221 26.5519 9.41076 26.5701 9.53783C26.5898 9.677 26.5742 9.68128 26.0441 9.68128H25.4977ZM27.7291 9.68128V8.94586V8.21045L28.3826 8.22862L29.0361 8.24679V8.9481C29.0361 9.62683 29.0315 9.65004 28.8926 9.6698C28.7524 9.68969 28.7492 9.6763 28.7492 9.08007V8.46993H28.3985H28.0479V9.0756C28.0479 9.67917 28.0473 9.68128 27.8885 9.68128H27.7291ZM31.4269 9.68128V8.94586V8.21045L32.0804 8.22862L32.7339 8.24679V8.9481C32.7339 9.62683 32.7293 9.65004 32.5904 9.6698C32.4502 9.68969 32.447 9.6763 32.447 9.08007V8.46993H32.0963H31.7457V9.0756C31.7457 9.67917 31.7451 9.68128 31.5863 9.68128H31.4269ZM33.2758 9.68128V8.94555V8.20975L33.8018 8.2283C34.2186 8.24297 34.3277 8.26662 34.3277 8.34242C34.3277 8.41415 34.236 8.44284 33.9612 8.45718C33.6198 8.47497 33.5946 8.48708 33.5946 8.63251C33.5946 8.77742 33.6175 8.78871 33.9133 8.78871C34.1896 8.78871 34.2321 8.80573 34.2321 8.91622C34.2321 9.0267 34.1896 9.04373 33.9133 9.04373C33.6175 9.04373 33.5946 9.05501 33.5946 9.19993C33.5946 9.34535 33.6198 9.35746 33.9612 9.37525C34.2859 9.39221 34.33 9.41076 34.3481 9.53783C34.3679 9.677 34.3523 9.68128 33.8222 9.68128H33.2758ZM34.7557 9.01638C34.7455 8.66821 34.7518 8.34548 34.7696 8.29913C34.8101 8.19356 35.4967 8.1838 35.7203 8.28568C35.8861 8.36123 36.0172 8.58597 36.0172 8.79464C36.0172 8.8647 35.9468 8.9924 35.8607 9.07847C35.7412 9.19808 35.6369 9.23499 35.4185 9.23499C35.1427 9.23499 35.1321 9.2422 35.1128 9.44219C35.0961 9.61535 35.0667 9.6494 34.9334 9.6494C34.7754 9.6494 34.7739 9.64417 34.7557 9.01638ZM36.3998 9.68128V8.94555V8.20975L36.9258 8.2283C37.3426 8.24297 37.4517 8.26662 37.4517 8.34242C37.4517 8.41415 37.36 8.44284 37.0851 8.45718C36.7438 8.47497 36.7186 8.48708 36.7186 8.63251C36.7186 8.77742 36.7415 8.78871 37.0373 8.78871C37.3136 8.78871 37.3561 8.80573 37.3561 8.91622C37.3561 9.0267 37.3136 9.04373 37.0373 9.04373C36.7415 9.04373 36.7186 9.05501 36.7186 9.19993C36.7186 9.34535 36.7438 9.35746 37.0851 9.37525C37.4099 9.39221 37.454 9.41076 37.4721 9.53783C37.4919 9.677 37.4763 9.68128 36.9462 9.68128H36.3998ZM37.8668 9.36199C37.9813 9.27567 38.01 9.17175 38.0399 8.73668L38.0756 8.21491H38.6084H39.1412V8.78871C39.1412 9.25622 39.159 9.3625 39.2369 9.3625C39.3091 9.3625 39.3325 9.44041 39.3325 9.68128C39.3325 9.95753 39.3155 10 39.205 10C39.1115 10 39.0775 9.95753 39.0775 9.84066C39.0775 9.68402 39.0687 9.68128 38.5719 9.68128C38.0961 9.68128 38.0651 9.68976 38.0459 9.82472C38.0325 9.91889 37.9817 9.96817 37.898 9.96817C37.7956 9.96817 37.7665 9.91883 37.75 9.71685C37.7338 9.51934 37.7588 9.44341 37.8668 9.36199ZM39.8497 8.81007C39.7055 8.5328 39.5875 8.28549 39.5875 8.26044C39.5875 8.23538 39.6531 8.21491 39.7333 8.21491C39.8487 8.21491 39.92 8.29799 40.0752 8.613L40.2713 9.01109L40.4722 8.613C40.6398 8.28109 40.7002 8.21491 40.836 8.21491H40.9989L40.6682 8.83652C40.4864 9.17844 40.2804 9.50831 40.2105 9.56971C40.1406 9.6311 40.0005 9.68128 39.8992 9.68128C39.7575 9.68128 39.715 9.65189 39.715 9.55377C39.715 9.47522 39.7579 9.42587 39.8266 9.4253C39.8879 9.42473 39.9773 9.39954 40.0251 9.36926C40.0944 9.32533 40.0589 9.2121 39.8497 8.81007ZM20.6523 8.72495C20.6523 8.6218 20.6101 8.53114 20.5515 8.50863C20.496 8.48734 20.3669 8.46993 20.2646 8.46993C20.09 8.46993 20.0785 8.48568 20.0785 8.72495C20.0785 8.96422 20.09 8.97997 20.2646 8.97997C20.5587 8.97997 20.6523 8.91839 20.6523 8.72495ZM30.6592 9.11373C30.7469 8.90219 30.6634 8.63684 30.4778 8.53758C30.2742 8.42862 30.0567 8.4591 29.9079 8.61746C29.6729 8.86764 29.756 9.24838 30.0718 9.36843C30.2978 9.45437 30.5664 9.33789 30.6592 9.11373ZM35.622 8.90347C35.7369 8.78858 35.7142 8.61032 35.5752 8.53592C35.5073 8.49964 35.3782 8.46993 35.2883 8.46993C35.1399 8.46993 35.1247 8.49371 35.1247 8.72495C35.1247 8.97098 35.1321 8.97997 35.3351 8.97997C35.4508 8.97997 35.5799 8.94555 35.622 8.90347ZM38.8225 9.3625V8.91622V8.46993H38.5674H38.3124L38.3115 8.77277C38.3111 8.93936 38.2934 9.14012 38.2723 9.21905C38.2364 9.35262 38.254 9.3625 38.5281 9.3625H38.8225ZM15.4244 9.07356C15.4244 9.05488 15.3829 8.94013 15.3321 8.81855C15.2812 8.69697 15.2311 8.59776 15.2205 8.59808C15.2099 8.59846 15.1532 8.71322 15.0944 8.8531L14.9877 9.10748H15.206C15.3261 9.10748 15.4244 9.09225 15.4244 9.07356ZM22.1187 9.08338C22.1187 9.07012 22.0753 8.95536 22.0222 8.82836C21.9691 8.70136 21.9161 8.59744 21.9044 8.59744C21.8926 8.59744 21.8379 8.7122 21.7828 8.85246L21.6827 9.10748H21.9007C22.0206 9.10748 22.1187 9.09664 22.1187 9.08338Z" fill="#333333"/>
</svg>
