<svg width="60" height="12" viewBox="0 0 60 12" fill="none" xmlns="http://www.w3.org/2000/svg">
<path fill-rule="evenodd" clip-rule="evenodd" d="M4.07365 0.0949121C3.94667 0.170763 0.786297 3.22105 0.218928 3.81555C-0.287109 4.34573 0.153751 5.24625 0.83211 5.0679C0.918338 5.04521 1.74142 4.29278 2.6612 3.39594L4.33355 1.76518L4.52395 1.92727C4.62874 2.01649 5.82379 3.20281 7.1797 4.5636L9.64498 7.03776L9.647 8.29251L9.64903 9.54726H9.44661H9.2442L9.2471 8.96407L9.24993 8.38087L6.80874 5.85716C4.30642 3.27025 4.19395 3.17468 3.82603 3.32122C3.67118 3.38293 0.834809 6.0881 0.219873 6.76051L0.000589956 7.00036V8.77405V10.5478L0.197809 10.7544C0.622678 11.1996 0.793516 11.1176 2.07898 9.85201C2.69858 9.24195 3.3129 8.63769 3.44427 8.5091L3.68299 8.27533L5.01339 9.61817C6.2965 10.9134 6.35344 10.9611 6.6184 10.9611C7.01102 10.9611 7.28664 10.6659 7.28975 10.2419L7.29197 9.93606L5.72103 8.3246C4.85699 7.43829 4.0644 6.66487 3.95962 6.60584C3.56086 6.38133 3.52018 6.41031 1.76889 8.1671L1.34429 8.59294L1.36406 8.09189L1.38376 7.59084L2.69271 6.30901L4.00172 5.02711L4.64938 5.65654C5.00563 6.00271 5.86785 6.88641 6.56551 7.62032L7.83391 8.95467L7.84747 9.7517L7.86103 10.5487L8.08139 10.7549L8.30175 10.9611H9.41841C11.0852 10.9611 10.9985 11.0969 10.9985 8.48691C10.9985 6.20305 11.086 6.46439 9.94172 5.33313C9.4653 4.86212 8.13429 3.5306 6.9839 2.37425C4.50897 -0.113554 4.4718 -0.142607 4.07365 0.0949121Z" fill="#333333"/>
<path d="M17.0247 0L16.0722 4.22406H18.1012C19.4583 4.22406 19.8889 3.31845 19.8889 2.69782C19.8889 2.06453 19.4061 1.5389 18.5318 1.5389H17.6054L17.775 0.791615H20.0259L20.2021 0H17.0247ZM18.4079 2.33051C18.7145 2.33051 18.9233 2.52684 18.9233 2.78649C18.9233 3.14746 18.6362 3.43244 18.1665 3.43244H17.1748L17.4292 2.33051H18.4079Z" fill="#333333"/>
<path d="M21.8985 1.08926C20.822 1.08926 20.2348 2.10886 20.2348 3.03347C20.2348 3.84408 20.7176 4.30005 21.4353 4.30005C21.8137 4.30005 22.1138 4.14806 22.3813 3.84408L22.29 4.22406H23.1251L23.8232 1.16526H22.9881L22.9033 1.57056C22.6945 1.26658 22.3161 1.08926 21.8985 1.08926ZM22.029 1.80488C22.3618 1.80488 22.6293 1.95687 22.7663 2.15953L22.5249 3.22346C22.3552 3.43244 22.0943 3.58443 21.8007 3.58443C21.4027 3.58443 21.1026 3.30578 21.1026 2.86881C21.1026 2.30518 21.4875 1.80488 22.029 1.80488Z" fill="#333333"/>
<path d="M24.7754 4.22406L25.0689 2.98281H26.3673L26.0802 4.22406H26.9088L27.6265 1.16526H26.7979L26.5369 2.27352H25.2321L25.493 1.16526H24.6644L23.9468 4.22406H24.7754Z" fill="#333333"/>
<path d="M30.8045 4.22406L29.8976 2.55217L31.4634 1.16526H30.4065L28.945 2.47617L29.2517 1.16526H28.4231L27.725 4.22406H28.5536L28.7297 3.43878L29.2191 3.02714L29.7997 4.22406H30.8045Z" fill="#333333"/>
<path d="M18.7254 10.8347L17.3879 8.59289L19.567 6.61068H18.3731L16.4745 8.4219L16.8855 6.61068H15.9591L15 10.8347H15.9265L16.2266 9.53649L16.6767 9.10585L17.6358 10.8347H18.7254Z" fill="#333333"/>
<path d="M21.0529 10.9107C22.1229 10.9107 22.7101 9.8848 22.7101 8.96653C22.7101 8.15592 22.2207 7.69995 21.5161 7.69995C21.1377 7.69995 20.8311 7.85194 20.5636 8.15592L20.6549 7.77594H19.8263L18.8607 12H19.6893L20.0481 10.4294C20.2569 10.7334 20.6223 10.9107 21.0529 10.9107ZM20.9159 10.1951C20.5831 10.1951 20.3156 10.0495 20.1786 9.84681L20.42 8.78288C20.5962 8.57389 20.8506 8.41557 21.1442 8.41557C21.5422 8.41557 21.8423 8.69421 21.8423 9.13119C21.8423 9.69482 21.4639 10.1951 20.9159 10.1951Z" fill="#333333"/>
<path d="M24.687 10.9107C25.0784 10.9107 25.496 10.7967 25.8026 10.5941L25.5417 10.0431C25.3459 10.1888 25.0197 10.2711 24.7457 10.2711C24.165 10.2711 23.8845 9.89747 23.8845 9.63782C23.8845 9.61882 23.8845 9.57449 23.8845 9.56182H26.2267C26.2593 9.4605 26.292 9.24518 26.292 9.06786C26.292 8.21291 25.6787 7.69995 24.8762 7.69995C23.8258 7.69995 23.0559 8.54222 23.0559 9.53649C23.0559 10.3914 23.6953 10.9107 24.687 10.9107ZM23.9693 9.01719C24.0411 8.68155 24.3803 8.33957 24.824 8.33957C25.3264 8.33957 25.5482 8.64988 25.5482 8.95386C25.5482 8.96653 25.5482 9.00453 25.5482 9.01719H23.9693Z" fill="#333333"/>
<path d="M26.0749 11.6137H26.897L27.0731 10.8347H29.0109L28.8347 11.6137H29.6698L30.0025 10.1318H29.6568L30.1918 7.77594H27.6407L27.1058 9.25784C26.8383 9.9988 26.6491 10.1128 26.3946 10.1635L26.0749 11.6137ZM28.2018 8.4789H29.1935L28.8282 10.1318H27.3667C27.6016 9.95447 27.7908 9.68215 27.9148 9.30851L28.2018 8.4789Z" fill="#333333"/>
<path d="M31.1633 10.8347L32.9314 8.91587L32.5008 10.8347H33.3294L34.021 7.77594H33.1859L31.4634 9.62515L31.8875 7.77594H31.0589L30.3673 10.8347H31.1633Z" fill="#333333"/>
<path d="M35.5677 10.8347L36.0962 8.4789H36.977L37.1401 7.77594H34.5434L34.3803 8.4789H35.2611L34.7326 10.8347H35.5677Z" fill="#333333"/>
<path d="M38.2199 11.6137H39.1398L39.3159 10.8347H42.0301L41.8539 11.6137H42.7804L43.1392 10.0431H42.7412L43.5241 6.61068H40.4316L39.6878 8.77021C39.2964 9.8848 39.0028 10.0495 38.5526 10.1128L38.2199 11.6137ZM41.0906 7.4023H42.415L41.8148 10.0431H39.7922C40.1184 9.79614 40.399 9.4035 40.5947 8.83354L41.0906 7.4023Z" fill="#333333"/>
<path d="M44.3146 10.8347L44.6082 9.59349H45.9066L45.6195 10.8347H46.4481L47.1658 7.77594H46.3372L46.0762 8.8842H44.7713L45.0323 7.77594H44.2037L43.4861 10.8347H44.3146Z" fill="#333333"/>
<path d="M48.4974 7.44663C48.7518 7.44663 49.0585 7.25031 49.0585 6.902C49.0585 6.67401 48.8693 6.49036 48.6083 6.49036C48.3604 6.49036 48.0537 6.68668 48.0537 7.03499C48.0537 7.26297 48.2429 7.44663 48.4974 7.44663ZM48.0929 10.8347L48.791 7.77594H47.9624L47.2643 10.8347H48.0929Z" fill="#333333"/>
<path d="M51.8765 10.8347L52.5942 7.77594H49.6322L48.9145 10.8347H49.7431L50.2976 8.4789H51.596L51.0479 10.8347H51.8765Z" fill="#333333"/>
<path d="M54.6174 10.9107C55.6874 10.9107 56.2746 9.8848 56.2746 8.96653C56.2746 8.15592 55.7852 7.69995 55.0806 7.69995C54.7022 7.69995 54.3956 7.85194 54.1281 8.15592L54.2194 7.77594H53.3908L52.4252 12H53.2538L53.6126 10.4294C53.8214 10.7334 54.1868 10.9107 54.6174 10.9107ZM54.4804 10.1951C54.1476 10.1951 53.8801 10.0495 53.7431 9.84681L53.9845 8.78288C54.1607 8.57389 54.4151 8.41557 54.7087 8.41557C55.1067 8.41557 55.4068 8.69421 55.4068 9.13119C55.4068 9.69482 55.0284 10.1951 54.4804 10.1951Z" fill="#333333"/>
<path d="M58.1732 10.9107C59.2432 10.9107 60 10.0431 60 9.09319C60 8.29524 59.4389 7.69995 58.4342 7.69995C57.3707 7.69995 56.6139 8.56756 56.6139 9.52383C56.6139 10.3218 57.1685 10.9107 58.1732 10.9107ZM58.2058 10.1951C57.7426 10.1951 57.4686 9.9228 57.4686 9.4795C57.4686 8.93487 57.847 8.41557 58.4081 8.41557C58.8648 8.41557 59.1388 8.68788 59.1388 9.13119C59.1388 9.68215 58.7604 10.1951 58.2058 10.1951Z" fill="#333333"/>
</svg>
