<svg width="26" height="12" viewBox="0 0 26 12" fill="none" xmlns="http://www.w3.org/2000/svg">
<path fill-rule="evenodd" clip-rule="evenodd" d="M21.5857 1.05836C19.1877 1.6406 16.9202 2.1926 16.5466 2.28513L15.8676 2.45341V6.04481V9.63635L16.1892 9.70821C16.8212 9.84957 20.831 10.7732 22.5863 11.1818C23.5691 11.4104 24.727 11.6788 25.1594 11.7783L25.9457 11.9589L25.9841 9.00624C26.0053 7.38229 26.0053 4.69151 25.9841 3.02677L25.9457 0L21.5857 1.05836ZM0 6.02844C0 11.7617 0.0105785 12 0.266461 12C0.412844 12 0.877436 11.9366 1.29857 11.8591C1.71985 11.7815 2.29151 11.6902 2.56898 11.6561C2.84645 11.622 4.61733 11.3455 6.50429 11.0418C8.39125 10.738 10.1917 10.4528 10.5052 10.408C10.8188 10.363 11.9832 10.1723 13.0928 9.984C14.2024 9.79561 15.1538 9.64162 15.2072 9.64162C15.2603 9.64162 15.2982 8.02474 15.2911 6.04869C15.2782 2.47477 15.2765 2.45521 14.9653 2.3742C14.7933 2.32939 14.327 2.21965 14.327 2.21965L14.0092 2.16333L13.7579 2.10132C13.6122 2.08092 12.285 1.97383 10.7917 1.74007C7.40302 1.20957 3.63911 0.624694 3.07346 0.540902C2.6932 0.48444 2.28822 0.420763 0.464592 0.130682L0 0.0567394V6.02844ZM4.82461 1.73646L5.86101 1.89794V2.99084V4.08375L4.7174 3.99815L3.57379 3.91269V4.69623V5.47977H4.7174H5.86101V6.22793C5.86101 7.07015 5.77752 7.1434 4.81289 7.14645C4.48524 7.14742 4.07226 7.18599 3.89543 7.23191C3.58494 7.31265 3.57379 7.37244 3.57379 8.94631V10.5769L2.82329 10.672C2.41045 10.7243 1.92799 10.8014 1.75115 10.8436L1.42951 10.9203V6.1422C1.42951 3.51427 1.46268 1.33193 1.50342 1.29253C1.54402 1.25313 2.07465 1.30044 2.68277 1.39797C3.29074 1.49535 4.25466 1.64768 4.82461 1.73646ZM24.7679 1.49133C24.6209 1.67251 23.2701 3.50594 22.124 5.07954L21.4557 5.99723L23.1504 8.33965C24.0825 9.62802 24.8339 10.6939 24.8204 10.7083C24.8068 10.7227 24.0251 10.5454 23.0834 10.3143L21.3712 9.8941L20.7358 8.91066L20.1003 7.92721L19.8066 8.3212C19.6451 8.5379 19.3842 8.85905 19.227 9.03496L18.9411 9.35473L17.9404 9.12444C17.39 8.99792 16.9202 8.88222 16.8963 8.86751C16.8724 8.85267 17.2311 8.28735 17.6932 7.61105C18.1554 6.93475 18.5837 6.29896 18.645 6.19797C18.7165 6.08018 18.4187 5.52222 17.8123 4.63838C17.2931 3.88162 16.8683 3.24 16.8683 3.21267C16.8683 3.13984 19.0165 2.66067 19.0656 2.7224C19.0884 2.75112 19.335 3.06964 19.6135 3.43033L20.1197 4.0861L20.817 3.06631L21.5142 2.04652L23.0152 1.69651C24.8222 1.27533 24.9557 1.25965 24.7679 1.49133ZM8.04102 2.23907C8.27131 2.3022 8.29118 2.60365 8.29118 6.0326V9.75732L7.56942 9.90756C7.17244 9.99024 6.78647 10.0578 6.71171 10.0578C6.62894 10.0578 6.57576 8.48088 6.57576 6.02247V1.98714L7.18331 2.07884C7.51753 2.12934 7.90335 2.20148 8.04102 2.23907ZM9.79603 2.62058C9.95113 2.72657 10.5284 3.37887 11.0787 4.07001C11.6291 4.76116 12.1277 5.32994 12.1866 5.33383C12.2455 5.33785 12.2938 4.8104 12.2938 4.16185C12.2938 2.86377 12.2825 2.87639 13.2766 3.06936L13.7233 3.15607V6.03468V8.91329L13.2587 9.00513C12.8333 9.08934 12.746 9.04148 12.2223 8.43704C11.9079 8.07413 11.4756 7.58802 11.2616 7.35676L10.8727 6.93642L10.8685 8.13933C10.8637 9.48943 11.002 9.33905 9.54201 9.58294L9.00594 9.67256V6.05008C9.00594 2.67135 9.02309 2.42775 9.25996 2.42775C9.39977 2.42775 9.64107 2.51445 9.79603 2.62058Z" fill="#333333"/>
</svg>
