<svg width="41" height="14" viewBox="0 0 41 14" fill="none" xmlns="http://www.w3.org/2000/svg">
<path fill-rule="evenodd" clip-rule="evenodd" d="M0 7V14H2.97272H5.9455L5.96165 7L5.97786 0H2.98893H0V7ZM6.57252 7V14H6.91679H7.26107V7V0H6.91679H6.57252V7ZM7.94962 7V14H10.9229H13.8962V7V0H10.9229H7.94962V7ZM16.8382 3.68919V6.05405H17.1824H17.5267V4.91892V3.78378H18.3405H19.1542V3.46847V3.15315H18.3405H17.5267V2.55405V1.95495H18.4656H19.4046V1.63964V1.32432H18.1214H16.8382V3.68919ZM40.374 2.12863V2.93294L39.7594 2.93268C39.185 2.93243 39.1249 2.94486 38.8427 3.12162C38.2621 3.48537 37.9981 4.27284 38.2102 5.00803C38.2862 5.27113 38.389 5.44493 38.5869 5.64427C38.7456 5.80407 38.9596 5.94659 39.1002 5.98588C39.2327 6.02303 39.7144 6.05349 40.1706 6.05368L41 6.05405V3.68919V1.32432H40.687H40.374V2.12863ZM20.8285 2.98704C20.4497 3.12944 20.1772 3.38018 19.9961 3.75301C19.845 4.06416 19.8299 4.15409 19.8555 4.5891C19.8876 5.13352 19.9868 5.37524 20.3138 5.70456C20.5926 5.98544 21.1081 6.14638 21.5737 6.09795C22.6107 5.99017 23.1985 5.01477 22.8793 3.93167C22.7781 3.58854 22.4709 3.22145 22.1402 3.04847C21.8715 2.90796 21.1312 2.87328 20.8285 2.98704ZM24.8103 3.02217C24.7022 3.08858 24.5949 3.17359 24.5718 3.21111C24.4978 3.33181 24.4122 3.28382 24.4122 3.12162C24.4122 2.97683 24.3892 2.96396 24.1305 2.96396H23.8489V4.50901V6.05405H24.1305H24.4122V5.07456C24.4122 4.01775 24.4675 3.75831 24.7325 3.57132C24.9458 3.42079 25.2953 3.44223 25.558 3.62184L25.7824 3.77527L25.9477 3.49092C26.1067 3.2176 26.1087 3.20304 25.9982 3.11468C25.8068 2.96163 25.6082 2.9009 25.3001 2.90115C25.1217 2.90128 24.9299 2.9487 24.8103 3.02217ZM32.4263 3.00073C32.0656 3.15839 31.9863 3.26635 31.9863 3.59977V3.9007L32.3425 3.68459C32.7844 3.4165 33.1445 3.39147 33.3525 3.6144C33.4385 3.70672 33.4885 3.8413 33.4885 3.98041C33.4885 4.19653 33.4811 4.20284 33.0637 4.33823C32.4557 4.5355 32.0794 4.79222 31.9877 5.07223C31.887 5.37953 31.9582 5.75324 32.1523 5.93682C32.2804 6.05796 32.376 6.08521 32.6673 6.08357C32.9141 6.08224 33.0933 6.041 33.2452 5.95069L33.4655 5.81978L33.637 5.96848C33.7313 6.05021 33.8627 6.11712 33.929 6.11712C33.9952 6.11712 34.1626 6.07146 34.301 6.01565C34.5165 5.92881 34.5527 5.88706 34.5527 5.72512C34.5527 5.56986 34.5331 5.54413 34.4431 5.58133C34.1471 5.70374 34.1477 5.70557 34.1145 4.6036C34.0781 3.39241 34.0209 3.21874 33.594 3.02343C33.2768 2.87839 32.7306 2.86779 32.4263 3.00073ZM36.462 3.00023C36.3587 3.05446 36.225 3.14382 36.1646 3.19881C36.0627 3.2917 36.055 3.28691 36.055 3.1314C36.055 2.97254 36.039 2.96396 35.742 2.96396H35.429V4.50901V6.05405H35.742H36.055V5.01036C36.055 3.87075 36.0993 3.68068 36.3975 3.54383C36.6397 3.43259 36.9377 3.4527 37.1504 3.59459C37.2537 3.66352 37.3565 3.72009 37.3789 3.72028C37.4565 3.7211 37.6888 3.26074 37.6553 3.1727C37.6053 3.04159 37.2228 2.90084 36.9177 2.90128C36.7702 2.90153 36.5652 2.94605 36.462 3.00023ZM26.6656 3.00281C26.6656 3.0438 27.5307 5.42386 27.706 5.86556C27.7839 6.06143 27.8385 6.11913 27.9324 6.10469C28.0281 6.08994 28.1472 5.86329 28.4559 5.10811C28.6758 4.5705 28.8784 4.07709 28.9062 4.01163C28.946 3.91798 29.0079 4.01869 29.1969 4.4846C29.3291 4.8102 29.5371 5.31199 29.6593 5.59968C29.9989 6.39926 30.0235 6.37605 30.6524 4.66667C30.9395 3.88626 31.1915 3.18229 31.2124 3.10226C31.249 2.96232 31.2381 2.95753 30.9198 2.97613L30.589 2.9955L30.2775 3.89414C30.1062 4.38843 29.9468 4.79279 29.9233 4.79279C29.8998 4.79279 29.715 4.38131 29.5127 3.87838C29.1517 2.98118 29.1412 2.96396 28.9537 2.96472C28.7661 2.96548 28.7557 2.98269 28.387 3.90682C28.1805 4.42457 27.9942 4.82861 27.973 4.80471C27.9519 4.78081 27.7969 4.35709 27.6287 3.86305L27.3229 2.96485L26.9943 2.96441C26.8135 2.96415 26.6656 2.98143 26.6656 3.00281ZM21.9148 3.61162C22.193 3.79886 22.3464 4.1177 22.3464 4.50901C22.3464 4.87465 22.2003 5.20308 21.9579 5.38199C21.8576 5.45603 21.6531 5.51814 21.4571 5.53397C21.1853 5.55598 21.0873 5.53429 20.9103 5.41308C20.6012 5.20144 20.4508 4.90832 20.4508 4.51784C20.4508 4.16267 20.5613 3.89124 20.7914 3.68143C20.9819 3.50769 21.0665 3.47944 21.414 3.47345C21.6154 3.46998 21.7661 3.51154 21.9148 3.61162ZM40.2135 3.52996L40.374 3.59144V4.5705V5.54955L39.9515 5.54942C39.4702 5.54936 39.1721 5.42828 38.9701 5.1508C38.8693 5.01225 38.8405 4.87824 38.8405 4.54704C38.8405 4.19924 38.8684 4.08031 38.9931 3.89686C39.0771 3.77338 39.218 3.62726 39.3061 3.57208C39.4864 3.45932 39.9704 3.43687 40.2135 3.52996ZM33.4885 5.03886V5.53719L33.2914 5.60643C33.0124 5.70443 32.7969 5.69239 32.6641 5.57131C32.5488 5.46618 32.5149 5.20939 32.5904 5.0115C32.6127 4.95272 32.8029 4.82483 33.0129 4.72727C33.2228 4.62971 33.4158 4.54779 33.4416 4.54521C33.4675 4.54262 33.4885 4.76479 33.4885 5.03886ZM16.8382 10.3166V12.6873L18.0431 12.6647C19.0277 12.6462 19.284 12.6225 19.4441 12.535C20.0722 12.1919 20.2654 11.3563 19.8727 10.6811C19.7584 10.4847 19.6319 10.372 19.4104 10.2697L19.1055 10.1287L19.2629 10.004C19.4716 9.83859 19.6522 9.42515 19.6522 9.11261C19.6522 8.82271 19.4818 8.40914 19.2923 8.2395C19.0385 8.0121 18.72 7.95156 17.7614 7.94872L16.8382 7.94595V10.3166ZM27.7924 10.3108V12.6757H28.1035H28.4147L28.4322 11.8601L28.4496 11.0445L29.1069 11.8588L29.7641 12.6732L30.1553 12.6744C30.3705 12.6751 30.5466 12.6606 30.5466 12.6423C30.5466 12.6238 30.2438 12.2537 29.8737 11.8197C29.5035 11.3857 29.1912 11.0029 29.1795 10.969C29.1678 10.9351 29.4002 10.618 29.6959 10.2642C29.9917 9.91042 30.2336 9.59883 30.2336 9.57178C30.2336 9.54466 30.0951 9.52252 29.9259 9.52252H29.6182L29.0339 10.2288L28.4496 10.9351L28.4328 9.44054L28.4161 7.94595H28.1042H27.7924V10.3108ZM18.5834 8.58339C18.6947 8.62249 18.8229 8.73228 18.8744 8.83255C18.9857 9.04936 18.9933 9.39419 18.8916 9.61888C18.7784 9.86918 18.5333 9.96396 17.9993 9.96396H17.5267V9.23874V8.51351H17.9556C18.1914 8.51351 18.4739 8.54498 18.5834 8.58339ZM25.4303 9.52101C25.3188 9.54756 25.1287 9.64537 25.0077 9.73832L24.7878 9.90733V9.71146C24.7878 9.51716 24.7854 9.51578 24.4905 9.53482L24.1931 9.55405L24.1764 11.1149L24.1596 12.6757H24.4737H24.7878V11.6604C24.7878 10.4934 24.8421 10.2944 25.2085 10.1192C25.3958 10.0297 25.4711 10.0244 25.6761 10.0862C25.8387 10.1353 25.9613 10.2275 26.0424 10.3615C26.1505 10.54 26.1644 10.6836 26.1646 11.6194L26.1649 12.6757H26.4826H26.8004L26.7799 11.4617C26.7608 10.3236 26.7505 10.2332 26.6156 10.0144C26.3686 9.6144 25.8843 9.41273 25.4303 9.52101ZM21.1514 9.66914C20.8852 9.81066 20.8749 9.82718 20.8567 10.1421C20.8377 10.4692 20.8913 10.5446 21.0264 10.3808C21.0661 10.3326 21.2408 10.2315 21.4146 10.1562C21.6263 10.0644 21.7906 10.0325 21.9126 10.0595C22.1575 10.1137 22.3576 10.3796 22.334 10.6193C22.3165 10.7961 22.2829 10.8188 21.8159 10.9695C21.441 11.0905 21.25 11.1947 21.0492 11.3879C20.8047 11.623 20.7817 11.6719 20.7817 11.9571C20.7817 12.3282 20.9014 12.5273 21.2 12.653C21.4538 12.7599 21.7803 12.7175 22.0931 12.5372C22.2769 12.4313 22.319 12.4261 22.3748 12.5024C22.5544 12.7476 22.8446 12.7705 23.2386 12.5706C23.3688 12.5045 23.4107 12.4372 23.4107 12.2941V12.1049L23.2218 12.2033C23.073 12.2808 23.0272 12.2845 23.0061 12.2207C22.9914 12.1761 22.9697 11.6998 22.9579 11.1622C22.941 10.3974 22.9134 10.1415 22.8309 9.98616C22.5932 9.53841 21.7108 9.37187 21.1514 9.66914ZM18.7938 10.572C18.9227 10.5934 19.0958 10.6791 19.1785 10.7624C19.4748 11.0609 19.4394 11.6568 19.1099 11.9179C18.9705 12.0285 18.8566 12.045 18.2381 12.045H17.5267V11.2883V10.5315L18.0431 10.5322C18.3272 10.5326 18.665 10.5505 18.7938 10.572ZM22.3335 11.6509L22.3153 12.1396L22.0467 12.2332C21.8084 12.3162 21.7592 12.3159 21.6094 12.2312C21.5166 12.1787 21.4144 12.0607 21.3824 11.9692C21.299 11.7302 21.471 11.4988 21.8668 11.3175C22.0446 11.2361 22.2264 11.1678 22.2709 11.1658C22.3319 11.163 22.3473 11.2825 22.3335 11.6509Z" fill="#333333"/>
</svg>
