<svg width="54" height="8" viewBox="0 0 54 8" fill="none" xmlns="http://www.w3.org/2000/svg">
<path fill-rule="evenodd" clip-rule="evenodd" d="M13.2809 0.392867C13.2478 0.580187 13.1793 1.00448 13.1286 1.33575L13.0365 1.93815H13.5585C13.8874 1.93815 14.144 1.87728 14.2522 1.77356C14.4504 1.58341 14.4781 1.1939 14.3051 1.02806C14.2196 0.946025 14.2196 0.894481 14.3051 0.843774C14.489 0.734819 14.4484 0.188576 14.251 0.115974C14.156 0.0809831 13.9124 0.0523823 13.7097 0.0523823C13.379 0.0523823 13.3349 0.0874785 13.2809 0.392867ZM15.5425 0.180824C15.4795 0.254264 15.2944 0.597159 15.1311 0.942882C14.968 1.28861 14.7897 1.66576 14.7352 1.781C14.6552 1.9503 14.6707 1.94527 14.8165 1.75481C14.9559 1.57262 15.1055 1.51909 15.4753 1.51909C15.896 1.51909 15.9548 1.54748 15.9623 1.75481C15.967 1.88451 15.9954 1.93249 16.0254 1.86156C16.0751 1.74381 15.7815 0.166681 15.6944 0.0831831C15.6739 0.0634874 15.6055 0.107384 15.5425 0.180824ZM16.6867 0.336818C16.6534 0.497318 16.5912 0.925072 16.5485 1.28735L16.4709 1.94611L17.5497 1.91594L18.6286 1.88576L18.7043 1.36194C18.7459 1.07384 18.8086 0.649541 18.8436 0.419059C18.8844 0.150233 18.8715 0.0522776 18.8078 0.145623C18.753 0.225768 18.6744 0.638226 18.6329 1.06231L18.5575 1.83338H18.0633C17.6059 1.83338 17.5735 1.81578 17.6288 1.59766C17.6617 1.46796 17.7144 1.0555 17.7458 0.68097L17.8029 0L17.6998 0.576206C17.4514 1.96476 17.5202 1.83338 17.0415 1.83338C16.5548 1.83338 16.5673 1.87162 16.7283 0.876252C16.8432 0.166471 16.8105 -0.257931 16.6867 0.336818ZM19.5104 1.01056C19.2355 1.54957 19.0909 1.88451 19.1891 1.75481C19.3275 1.57231 19.4759 1.51909 19.8462 1.51909C20.2517 1.51909 20.3246 1.55104 20.3246 1.72862C20.3246 1.84386 20.3673 1.93815 20.4194 1.93815C20.5143 1.93815 20.1873 0.200205 20.0716 0.0892595C20.038 0.056992 19.7854 0.471546 19.5104 1.01056ZM14.2968 0.459603C14.3413 0.760696 14.162 0.886728 13.6863 0.888928C13.4085 0.890185 13.3312 0.846708 13.3312 0.689561C13.3312 0.261388 13.4526 0.144785 13.8641 0.177786C14.1866 0.203662 14.2669 0.25594 14.2968 0.459603ZM15.7932 0.916691L15.8692 1.41432H15.4627C15.1814 1.41432 15.0729 1.37399 15.1105 1.28337C15.5997 0.104555 15.6638 0.0700875 15.7932 0.916691ZM20.2024 1.12622C20.2141 1.38803 20.1803 1.41432 19.8329 1.41432C19.6225 1.41432 19.4504 1.38918 19.4504 1.35848C19.4504 1.32768 19.583 1.05666 19.7451 0.756087L20.0397 0.209529L20.1146 0.523823C20.1558 0.696685 20.1953 0.967816 20.2024 1.12622ZM14.1418 1.05886C14.3454 1.13376 14.3708 1.5281 14.1835 1.70766C14.1114 1.77681 13.8655 1.83338 13.6371 1.83338C13.2394 1.83338 13.2219 1.81871 13.2219 1.4842C13.2219 1.29206 13.2547 1.10349 13.2948 1.06514C13.3858 0.977873 13.9111 0.973997 14.1418 1.05886ZM7.86998 2.47412C7.72105 2.53101 7.33083 2.77186 7.00291 3.00926L6.40661 3.44089L6.87801 3.84193L7.3493 4.24297H6.73967C5.86637 4.24297 5.07229 4.43092 4.55052 4.76113C3.95149 5.14017 3.26985 5.38878 2.40966 5.54205L1.70519 5.66756L3.27051 6.74464C4.13135 7.33709 4.89352 7.843 4.96422 7.86908C5.03492 7.89506 5.44622 7.74672 5.87839 7.53949C6.5184 7.23243 6.83124 6.98445 7.56632 6.20133C8.94456 4.73295 9.46787 4.2766 10.1297 3.96608C10.6752 3.71024 10.7123 3.67263 10.4952 3.59573C10.3624 3.54859 9.97489 3.30072 9.63429 3.04478C8.75618 2.38528 8.40181 2.27067 7.86998 2.47412ZM18.2742 2.55888C17.7147 2.69497 17.063 3.16295 16.7283 3.66886C16.1162 4.59445 15.9901 6.43768 16.4864 7.2076C17.1168 8.18558 18.9709 8.27588 20.0321 7.38036C20.6841 6.83013 21.0029 6.10076 21.066 5.01561C21.1367 3.79939 20.8382 3.08679 20.1058 2.72378C19.719 2.53195 18.7451 2.44426 18.2742 2.55888ZM35.7866 2.55992C34.4553 2.87066 33.7522 3.88782 33.6819 5.60491C33.6457 6.48588 33.6702 6.65402 33.8943 7.0692C34.2578 7.74263 34.7115 7.96264 35.7319 7.96002C36.6154 7.95782 37.0561 7.80319 37.6266 7.29539C38.4143 6.5942 38.7991 4.93819 38.4406 3.79122C38.1339 2.80989 36.9897 2.27916 35.7866 2.55992ZM13.1204 2.75028C12.4433 3.08123 12.3507 3.31192 12.0101 5.51429C11.8374 6.63014 11.6954 7.6255 11.6942 7.72639C11.6924 7.88239 11.798 7.90973 12.4024 7.90973C12.793 7.90973 13.1126 7.887 13.1126 7.85913C13.1126 7.47276 13.7059 4.05313 13.7897 3.95633C13.8677 3.86613 14.2447 3.82391 14.9703 3.82391C15.6921 3.82391 16.0714 3.78158 16.145 3.69295C16.2049 3.62098 16.2877 3.33812 16.3291 3.06437L16.4042 2.56673L14.9496 2.56694C13.7808 2.56705 13.4214 2.60309 13.1204 2.75028ZM21.591 3.09401C21.5509 3.384 21.5474 3.66687 21.5834 3.7226C21.6193 3.77834 21.9431 3.82391 22.3028 3.82391H22.957L22.8955 4.16439C22.7431 5.00838 22.4007 7.42237 22.4007 7.65358C22.4007 7.89831 22.4316 7.90973 23.0935 7.90973H23.7863L23.974 6.62636C24.0773 5.92057 24.2141 5.00115 24.278 4.58345L24.3942 3.82391H25.0848C25.4645 3.82391 25.8049 3.77792 25.8412 3.72166C25.8774 3.6654 25.9363 3.38254 25.9722 3.09307L26.0372 2.56673H23.8506H21.664L21.591 3.09401ZM26.6623 2.60948C26.6623 2.63295 26.4905 3.82328 26.2803 5.25479C26.0702 6.68619 25.8981 7.86908 25.8979 7.88354C25.8977 7.898 26.2161 7.90973 26.6056 7.90973C27.2507 7.90973 27.3189 7.88867 27.3698 7.67401C27.4528 7.32399 28.0829 2.98087 28.0829 2.75824C28.0829 2.5924 27.9877 2.56673 27.3726 2.56673C26.982 2.56673 26.6623 2.58591 26.6623 2.60948ZM29.188 2.70963C29.0362 2.8849 28.3549 7.51445 28.447 7.74452C28.5022 7.88239 28.7328 7.90973 29.8425 7.90973C31.3662 7.90973 31.9022 7.78967 32.4037 7.33614C33.063 6.74014 33.1453 5.54676 32.5547 5.15023C32.3378 5.0045 32.3395 4.99717 32.6592 4.69073C33.3364 4.04151 33.167 2.9727 32.3444 2.70356C31.7868 2.52127 29.3471 2.52588 29.188 2.70963ZM39.4125 2.64531C39.2963 2.83724 39.0955 4.87418 39.1602 5.20471C39.2983 5.91061 39.9089 6.2335 41.1055 6.2335H41.8755L41.8142 6.57398C41.7804 6.7612 41.7202 7.13845 41.6804 7.4121L41.6078 7.90973H42.3255H43.0432L43.105 7.56925C43.1906 7.09801 43.818 2.77983 43.818 2.66228C43.818 2.60969 43.4984 2.56673 43.1078 2.56673C42.7171 2.56673 42.3975 2.59062 42.3975 2.61985C42.3975 2.81995 42.0536 4.81174 42.0064 4.88497C41.9224 5.01529 41.1142 4.99801 40.8457 4.86024C40.6339 4.7516 40.6242 4.68518 40.6931 3.81113C40.7335 3.29789 40.7946 2.8079 40.8288 2.72231C40.8799 2.5945 40.7636 2.56673 40.1756 2.56673C39.7821 2.56673 39.4386 2.60204 39.4125 2.64531ZM44.6922 2.60948C44.6922 2.63295 44.5203 3.82328 44.3102 5.25479C44.1001 6.68619 43.928 7.87128 43.9278 7.88836C43.9275 7.90533 44.2593 7.90533 44.6649 7.88836L45.4025 7.85735L45.5579 6.73113L45.7133 5.60491L46.1042 5.60648C46.7622 5.6092 46.9227 5.82523 47.0369 6.86208C47.1566 7.94891 47.1235 7.90973 47.9231 7.90973C48.745 7.90973 48.7158 7.9859 48.4623 6.50337C48.3358 5.76279 48.243 5.50874 48.0162 5.28171C47.7348 5.00021 47.7336 4.99298 47.9509 4.88151C48.1759 4.76606 48.5466 4.1095 48.9473 3.11675L49.1692 2.56673H48.4231H47.6771L47.3789 3.29537C46.9679 4.29965 46.7384 4.55726 46.2548 4.55726C45.8671 4.55726 45.8665 4.55642 45.9313 4.16439C45.967 3.94837 46.0293 3.5005 46.0696 3.16913L46.1428 2.56673H45.4176C45.0186 2.56673 44.6922 2.58591 44.6922 2.60948ZM51.4378 2.69769C51.2886 2.80602 49.2101 7.09131 49.0022 7.71885C48.9455 7.89035 49.0124 7.90973 49.6628 7.90973H50.3865L50.6154 7.38161L50.8443 6.85349L51.6201 6.88398L52.3959 6.91447L52.4505 7.38591L52.5052 7.85735L53.2526 7.88857L54 7.91968L53.9379 7.62666C53.9037 7.46542 53.701 6.32286 53.4874 5.08769C53.2738 3.85241 53.0454 2.77993 52.9799 2.70429C52.8261 2.5265 51.6802 2.52169 51.4378 2.69769ZM0 2.77103C0 2.82582 0.0617385 2.90827 0.137136 2.95436C0.212534 3.00046 0.661095 3.45074 1.13402 3.95487C1.81927 4.68549 2.05475 4.87156 2.29449 4.87156C2.72175 4.87156 3.27816 4.75432 3.27816 4.66433C3.27816 4.62243 2.88642 4.18671 2.4077 3.6961C1.92898 3.20548 1.56838 2.77427 1.60641 2.73781C1.64443 2.70136 1.29848 2.6715 0.837788 2.6715C0.376988 2.6715 0 2.71634 0 2.77103ZM19.2914 3.97634C19.509 4.18482 19.5596 4.33841 19.559 4.78827C19.5579 5.84419 19.1783 6.57063 18.5544 6.71101C18.3249 6.76266 18.1949 6.71552 17.9688 6.49876C17.7004 6.24146 17.6816 6.16655 17.7227 5.51963C17.7745 4.70435 18.049 4.0876 18.454 3.87661C18.8554 3.6675 18.9855 3.6829 19.2914 3.97634ZM36.7749 3.97634C37.078 4.26686 37.1317 4.86087 36.9257 5.64524C36.7447 6.33459 36.392 6.69446 35.8977 6.69446C35.3359 6.69446 35.1856 6.46492 35.1856 5.60711C35.1856 4.80325 35.5087 4.06183 35.9505 3.85199C36.341 3.66645 36.4726 3.68635 36.7749 3.97634ZM31.5567 4.04695C31.6148 4.34029 31.2728 4.55726 30.7523 4.55726C30.2491 4.55726 30.2111 4.51096 30.3386 4.0546C30.3992 3.83763 30.4609 3.817 30.9644 3.84507C31.3768 3.86812 31.5317 3.92092 31.5567 4.04695ZM52.154 4.89775L52.2152 5.70967H51.7865C51.5507 5.70967 51.3578 5.69427 51.3578 5.67531C51.3578 5.65645 51.4734 5.36186 51.6147 5.02053C51.7561 4.67931 51.9047 4.31086 51.9451 4.2018C52.0555 3.90385 52.0871 4.00924 52.154 4.89775ZM31.4489 6.03696C31.5008 6.46555 31.2184 6.65256 30.5201 6.65256H29.9132L29.9815 6.32517C30.0191 6.14508 30.0498 5.93073 30.0498 5.8487C30.0498 5.73241 30.1997 5.70653 30.7327 5.73084C31.3789 5.76038 31.4174 5.77693 31.4489 6.03696Z" fill="#333333"/>
</svg>
