<svg width="58" height="9" viewBox="0 0 58 9" fill="none" xmlns="http://www.w3.org/2000/svg">
<path fill-rule="evenodd" clip-rule="evenodd" d="M1.54943 0.0497854C-0.423253 0.545015 -0.545509 3.27236 1.37393 3.96492C1.70553 4.08457 2.34452 4.08457 2.67613 3.96492C3.54791 3.65036 4.03748 2.95621 4.03831 2.03346C4.03913 1.10977 3.54462 0.409319 2.67613 0.104088C2.39952 0.00689434 1.82971 -0.0205898 1.54943 0.0497854ZM6.44148 0.0665544C4.92779 0.459899 4.4188 2.3695 5.534 3.47123C6.81902 4.74074 8.99734 3.83643 8.99734 2.03346C8.99734 0.705319 7.73163 -0.268734 6.44148 0.0665544ZM10.7685 4.50037V8.84396H11.6382H12.508V4.50037V0.156786H11.6382H10.7685V4.50037ZM17.7571 1.92519V3.69356L17.4443 3.38188C16.9575 2.89685 16.5875 2.75032 15.8497 2.75032C15.2531 2.75032 14.8903 2.85635 14.4122 3.17048C12.7903 4.2361 12.668 7.07699 14.1886 8.36493C14.7135 8.80955 15.1762 8.97693 15.8802 8.97693C16.7241 8.97693 17.25 8.73315 17.7341 8.11751L17.8175 8.01157L17.8178 8.42776L17.8181 8.84396H18.6269H19.4356V4.50037V0.156786H18.5963H17.7571V1.92519ZM33.718 4.50074V8.8485L35.572 8.83525C37.6225 8.8206 37.6601 8.81751 38.2206 8.61882C39.3637 8.21358 40.0064 7.21816 39.8828 6.04409C39.8007 5.26469 39.3265 4.62321 38.6513 4.37839L38.4728 4.31364L38.7007 4.17274C39.3134 3.79402 39.6127 3.24558 39.6127 2.50187C39.6127 1.31009 38.9475 0.522888 37.7007 0.239057C37.4428 0.180335 37.3124 0.175795 35.572 0.164747L33.718 0.152972V4.50074ZM52.5477 4.50037V8.84493L53.3793 8.83688L54.2109 8.82883L54.2189 7.39124L54.2268 5.95368L55.1006 7.3988L55.9744 8.84396H56.9957C57.9153 8.84396 58.0151 8.83918 57.9984 8.79599C57.9882 8.76959 57.5268 8.0346 56.9731 7.16265L55.9663 5.57728L56.9518 4.25184L57.9373 2.92639L56.9938 2.90281C56.3448 2.88659 56.0383 2.88916 56.0117 2.91108C55.9904 2.9286 55.5834 3.50876 55.1072 4.20029L54.2415 5.45763L54.2262 2.81479L54.2109 0.17192L53.3793 0.163869L52.5477 0.155817V4.50037ZM36.9368 1.67165C37.5619 1.76125 37.8532 2.07356 37.8532 2.65397C37.8532 3.10352 37.7119 3.3497 37.3492 3.53201C37.0626 3.67606 36.9029 3.69825 36.1531 3.69825H35.4576V2.66911V1.63996L36.0908 1.64057C36.4391 1.6409 36.8198 1.65489 36.9368 1.67165ZM22.5027 2.76376C20.9029 2.96196 19.9375 4.14172 19.9422 5.89274C19.9448 6.85899 20.1691 7.49 20.7302 8.10852C21.7988 9.28668 24.1471 9.29606 25.2689 8.12668C25.5317 7.85278 25.8956 7.22016 25.8287 7.15341C25.8179 7.14261 25.4525 7.10625 25.0166 7.07266L24.2243 7.01151L24.1314 7.15505C23.7032 7.81682 22.6531 7.90242 22.0985 7.32074C21.8835 7.09533 21.6688 6.63279 21.6639 6.38461C21.6636 6.37214 22.5128 6.36191 23.5508 6.36191C24.5889 6.36191 25.564 6.35307 25.7176 6.34224L25.997 6.32259L25.9964 5.94117C25.993 3.83161 24.5412 2.51122 22.5027 2.76376ZM28.8113 2.75994C28.0529 2.83913 27.3883 3.16073 26.9919 3.64047C26.766 3.91373 26.5463 4.46211 26.5463 4.75251V4.84947L27.347 4.84141L28.1478 4.83333L28.1686 4.68874C28.2429 4.17341 28.7774 3.88655 29.498 3.97527C30.1023 4.0497 30.3916 4.3813 30.3916 4.99954V5.26067L29.5394 5.31267C27.9081 5.41219 27.3323 5.56075 26.8334 6.01064C26.3283 6.46619 26.2017 7.33021 26.5389 8.02143C27.1123 9.19711 29.245 9.34049 30.2893 8.27361L30.4831 8.07565V8.45982V8.84396H31.2954H32.1077L32.0848 8.76072C32.0721 8.71496 32.0522 7.70358 32.0405 6.51326C32.0171 4.12807 32.022 4.18888 31.8188 3.81064C31.4111 3.05201 30.1693 2.61816 28.8113 2.75994ZM42.5683 2.76412C41.6299 2.85974 40.854 3.32461 40.5244 3.98874C40.4212 4.19666 40.31 4.59021 40.31 4.74737V4.84847H41.1013H41.8926L41.9266 4.68577C42.0265 4.20864 42.3943 3.9664 43.0178 3.96701C43.7882 3.96779 44.1552 4.30039 44.1552 4.99787V5.26143L43.267 5.31421C41.9595 5.39188 41.5754 5.46096 41.0508 5.71279C40.3952 6.0275 40.1284 6.45587 40.1273 7.19552C40.1257 8.30805 40.9079 8.98026 42.2021 8.97845C43.0043 8.97733 43.5061 8.79475 43.9797 8.33166L44.2468 8.07059V8.45728V8.84396H45.0588H45.8709L45.8534 8.77486C45.7912 8.52908 45.7732 7.97031 45.7729 6.28016C45.7728 5.02354 45.7615 4.34407 45.739 4.237C45.5216 3.20311 44.2153 2.59628 42.5683 2.76412ZM49.4816 2.7613C48.929 2.8473 48.5424 3.07432 48.18 3.52578L48.0634 3.6711L48.0548 3.28362L48.0463 2.89612H47.2528H46.4593L46.4516 5.87004L46.4438 8.84396H47.2832H48.1226L48.1236 7.0808C48.125 4.89239 48.1459 4.7464 48.5122 4.37261C48.9472 3.92869 49.8093 4.04083 50.0829 4.57692C50.2218 4.84916 50.2283 4.95547 50.2283 6.95627V8.84396H51.0676H51.9068V6.72338C51.9068 4.15849 51.8956 4.05796 51.5496 3.53882C51.1632 2.95881 50.2993 2.63405 49.4816 2.7613ZM23.5327 4.12922C23.9223 4.30747 24.3185 4.87171 24.3185 5.24832C24.3185 5.26149 23.7214 5.27223 22.9917 5.27223H21.6649L21.6842 5.17386C21.796 4.6048 22.1303 4.21966 22.64 4.07286C22.8744 4.00536 23.324 4.03372 23.5327 4.12922ZM16.7496 4.23328C18.1524 4.61812 18.1543 7.17848 16.7521 7.58514C15.7012 7.88995 14.7953 7.01881 14.8669 5.77221C14.9332 4.61909 15.743 3.95714 16.7496 4.23328ZM1.54943 4.98362C-0.423253 5.47885 -0.545509 8.2062 1.37393 8.89875C1.70553 9.0184 2.34452 9.0184 2.67613 8.89875C3.54706 8.5845 4.03791 7.88831 4.03791 6.96729C4.03791 6.04466 3.54217 5.3423 2.67613 5.03792C2.39952 4.94073 1.82971 4.91324 1.54943 4.98362ZM6.43983 4.99902C4.91112 5.40817 4.41935 7.29871 5.54987 8.42026C6.81524 9.67557 8.99734 8.75588 8.99734 6.96729C8.99734 5.6433 7.71631 4.65741 6.43983 4.99902ZM37.2124 5.19235C37.4582 5.25758 37.6668 5.37902 37.8162 5.54386C38.1744 5.93896 38.1582 6.61947 37.7817 6.99287C37.4974 7.27482 37.2416 7.33052 36.2309 7.33052H35.4576V6.24084V5.15116L36.2587 5.15152C36.8301 5.15176 37.1035 5.16347 37.2124 5.19235ZM30.4145 6.62776C30.3951 7.04448 30.359 7.14945 30.164 7.35622C29.6503 7.90096 28.4112 7.93036 28.1111 7.40492C27.9375 7.10084 28.0615 6.70519 28.3817 6.54183C28.5687 6.44636 29.6624 6.29511 30.3121 6.27483L30.4311 6.27111L30.4145 6.62776ZM44.1552 6.63467C44.1552 6.94026 44.1451 7.01966 44.0915 7.13271C43.8705 7.59897 43.0893 7.88456 42.4213 7.74335C42.0062 7.65561 41.8295 7.48289 41.8103 7.146C41.7889 6.77051 41.9521 6.57352 42.3775 6.46116C42.5271 6.42169 43.7537 6.28536 44.056 6.27462L44.1552 6.27111V6.63467Z" fill="#333333"/>
</svg>
