<svg width="56" height="8" viewBox="0 0 56 8" fill="none" xmlns="http://www.w3.org/2000/svg">
<path fill-rule="evenodd" clip-rule="evenodd" d="M8.55471 7.85862V3.74668C8.55471 2.58024 7.93108 2.02648 6.8838 2.02648C6.013 2.02648 5.25996 2.54491 4.93044 3.06328C4.71862 2.41528 4.18912 2.02648 3.35366 2.02648C2.48286 2.02648 1.72982 2.56845 1.49443 2.91011V2.16792H0V7.85862H1.49443V4.02949C1.71804 3.71135 2.1534 3.35789 2.67112 3.35789C3.28303 3.35789 3.51836 3.73489 3.51836 4.26512V7.85862H5.02457V4.01769C5.23639 3.71135 5.67176 3.35789 6.20126 3.35789C6.81317 3.35789 7.0485 3.73489 7.0485 4.26512L7.04856 7.85862H8.55471ZM12.6615 8C10.7905 8 9.66084 6.63326 9.66084 5.00737C9.66084 3.39322 10.7905 2.02654 12.6615 2.02654C14.5442 2.02654 15.6739 3.39328 15.6739 5.00737C15.6739 6.63326 14.5443 8 12.6615 8ZM12.6615 6.66865C13.5911 6.66865 14.1206 5.9028 14.1206 5.00737C14.1206 4.12374 13.5911 3.35789 12.6615 3.35789C11.7318 3.35789 11.2141 4.12374 11.2141 5.00737C11.2141 5.9028 11.7319 6.66865 12.6615 6.66865ZM22.1105 7.85862V3.84093C22.1105 2.73341 21.5104 2.02648 20.2631 2.02648C19.3335 2.02648 18.6393 2.4742 18.2745 2.91011V2.16792H16.78V7.85862H18.2745V4.02949C18.5216 3.68782 18.9805 3.35789 19.5688 3.35789C20.2043 3.35789 20.6161 3.6289 20.6161 4.41829V7.85862H22.1105ZM26.229 8C24.3581 8 23.2284 6.63326 23.2284 5.00737C23.2284 3.39322 24.358 2.02654 26.229 2.02654C28.1118 2.02654 29.2415 3.39328 29.2415 5.00737C29.2415 6.63326 28.1118 8 26.229 8ZM26.229 6.66865C27.1586 6.66865 27.6882 5.9028 27.6882 5.00737C27.6882 4.12374 27.1587 3.35789 26.229 3.35789C25.2994 3.35789 24.7817 4.12374 24.7817 5.00737C24.7817 5.9028 25.2995 6.66865 26.229 6.66865ZM31.842 6.03238C32.0891 6.39764 32.6421 6.66859 33.1246 6.66859C33.9954 6.66859 34.5719 6.00878 34.5719 5.01911C34.5719 4.02943 33.9954 3.35783 33.1246 3.35783C32.6421 3.35783 32.0891 3.64057 31.842 4.01763V6.03238ZM31.842 7.85862H30.3475V0H31.842V2.89837C32.2891 2.32108 32.9245 2.02648 33.5953 2.02648C35.0426 2.02648 36.1135 3.15753 36.1135 5.01911C36.1135 6.91601 35.0309 7.99994 33.5953 7.99994C32.9128 7.99994 32.2891 7.6936 31.842 7.12804V7.85862ZM42.15 7.85862H40.6556V7.26954C40.2673 7.72905 39.5966 8 38.8552 8C37.9491 8 36.8784 7.38732 36.8784 6.11489C36.8784 4.78354 37.9492 4.27691 38.8552 4.27691C39.6083 4.27691 40.279 4.52433 40.6556 4.97204V4.20619C40.6556 3.6289 40.1614 3.25184 39.4083 3.25184C38.7964 3.25184 38.2316 3.47573 37.7491 3.92344L37.1843 2.92197C37.8785 2.30929 38.7728 2.02654 39.6671 2.02654C40.9615 2.02654 42.15 2.54498 42.15 4.18266L42.15 7.85862ZM39.4554 6.98673C39.9378 6.98673 40.4085 6.82176 40.6556 6.49189V5.78496C40.4085 5.45509 39.9378 5.29012 39.4554 5.29012C38.867 5.29012 38.3845 5.59646 38.3845 6.15022C38.3845 6.68039 38.8669 6.98673 39.4554 6.98673ZM48.9632 7.85862V3.84093C48.9632 2.73341 48.3631 2.02648 47.1158 2.02648C46.1862 2.02648 45.4919 2.4742 45.1271 2.91011V2.16792H43.6327V7.85862H45.1271V4.02949C45.3742 3.68782 45.8332 3.35789 46.4215 3.35789C47.0569 3.35789 47.4688 3.6289 47.4688 4.41829V7.85862H48.9632ZM56 7.85862L53.6819 4.74816L55.9294 2.16792H54.0937L51.9403 4.70103V0H50.4459V7.85862H51.9403V6.39764L52.6228 5.66718L54.129 7.85862H56Z" fill="#333333"/>
</svg>
