<svg width="55" height="10" viewBox="0 0 55 10" fill="none" xmlns="http://www.w3.org/2000/svg">
<path fill-rule="evenodd" clip-rule="evenodd" d="M3.18012 0.281755C2.84215 0.428847 2.31398 0.72878 2.0062 0.948212C1.39451 1.38448 0.368549 2.70682 0.368549 3.05906C0.368549 3.27552 1.51748 3.70975 2.09064 3.70975C2.25009 3.70975 2.43454 3.53966 2.50047 3.33173C2.62788 2.9294 3.78718 2.10881 4.37053 2.00809C4.62406 1.96431 4.74758 1.74321 4.8187 1.20567C4.87259 0.797596 4.88462 0.359475 4.84518 0.231859C4.75036 -0.0749369 3.94459 -0.0508237 3.18012 0.281755ZM5.18352 0.440533C5.18352 1.34794 5.4139 2.04036 5.71595 2.0411C6.20689 2.04222 7.21952 2.75041 7.54675 3.32152L7.85139 3.85295L8.78605 3.57675C9.30014 3.42503 9.75164 3.27126 9.78942 3.23546C9.94979 3.08317 8.82939 1.45849 8.26863 1.0302C7.5812 0.504897 6.28449 0 5.62317 0C5.2839 0 5.18352 0.100534 5.18352 0.440533ZM53.3746 1.03075C53.1481 1.18953 52.9629 1.51042 52.9629 1.74395C52.9629 2.22752 53.4901 2.78231 53.9498 2.78231C54.3346 2.78231 55 2.13589 55 1.76213C55 1.42232 54.3481 0.74195 54.0227 0.74195C53.8926 0.74195 53.6009 0.871976 53.3746 1.03075ZM54.5587 1.39969C54.7728 1.72318 54.7676 1.83985 54.5241 2.18801C54.03 2.89472 53.1481 2.60387 53.1481 1.73431C53.1481 1.29637 53.617 0.903509 54.052 0.976962C54.1926 1.0007 54.4205 1.19102 54.5587 1.39969ZM53.5212 1.8085C53.5235 2.18671 53.5677 2.24978 53.6924 2.05223C53.8227 1.84597 53.9194 1.83484 54.1213 2.00271C54.3311 2.17707 54.3768 2.14832 54.3554 1.85543C54.3263 1.45997 54.074 1.0992 54.074 1.45292C54.074 1.57201 53.9857 1.66939 53.8779 1.66939C53.7701 1.66939 53.7333 1.58592 53.7963 1.4839C53.8592 1.38188 53.8224 1.29841 53.7146 1.29841C53.6068 1.29841 53.5198 1.52786 53.5212 1.8085ZM13.7792 3.23138C12.8634 3.63073 12.406 4.36081 12.406 5.42273C12.406 6.21847 12.4895 6.42733 13.021 6.95968C13.7877 7.72759 14.7774 7.94944 15.8172 7.58625C17.2204 7.09638 17.826 5.4218 17.0569 4.15863C16.6617 3.50924 15.6583 2.96428 14.8781 2.97503C14.5879 2.97911 14.0935 3.09449 13.7792 3.23138ZM24.3508 3.21784C22.7745 3.94328 22.3621 5.80984 23.5069 7.03721C24.4155 8.01139 26.2011 8.01788 27.2757 7.05093C27.7504 6.62394 27.8234 6.46999 27.6393 6.28302C27.4545 6.09549 27.2965 6.15726 26.84 6.59538C26.3818 7.0348 26.1081 7.14127 25.4346 7.14127C24.724 7.14127 24.5169 7.05019 24.0579 6.53546C23.4139 5.81373 23.3595 5.07382 23.8995 4.38622C24.6119 3.479 26.195 3.43022 26.9046 4.29329C27.1241 4.56021 27.2983 4.63422 27.42 4.51235C27.5211 4.41108 27.5524 4.19406 27.4896 4.03009C27.1822 3.22804 25.3559 2.75542 24.3508 3.21784ZM31.8511 5.37914V7.79047H33.8098C35.7279 7.79047 35.7799 7.77916 36.3099 7.24829C36.6077 6.95003 36.8512 6.52897 36.8512 6.31232C36.8512 5.83803 36.0725 5.0128 35.6095 4.99648C35.4268 4.98998 34.7354 4.96921 34.0734 4.9501C32.9078 4.91653 32.8678 4.89928 32.8111 4.40533L32.7524 3.89524H34.6167H36.4809V3.43152V2.9678H34.166H31.8511V5.37914ZM37.9841 5.30123C37.3611 6.58462 36.8512 7.66972 36.8512 7.71257C36.8512 7.75542 37.0157 7.79047 37.2168 7.79047C37.4359 7.79047 37.6978 7.56715 37.8698 7.23401C38.1472 6.69665 38.2015 6.67755 39.4439 6.67755C40.6864 6.67755 40.7406 6.69665 41.0181 7.23401C41.2201 7.62557 41.4416 7.79047 41.7649 7.79047C42.2159 7.79047 42.202 7.7454 41.0181 5.37914C40.1152 3.57434 39.7243 2.9678 39.4643 2.9678C39.2032 2.9678 38.8361 3.54652 37.9841 5.30123ZM42.7157 3.09152C42.6477 3.15941 42.5922 4.24451 42.5922 5.50286V7.79047H43.0552C43.4929 7.79047 43.5181 7.73483 43.5181 6.77029V5.75011H45.0923H46.6664V6.77029C46.6664 7.73483 46.6916 7.79047 47.1294 7.79047H47.5923V5.37914V2.9678H47.1294C46.6973 2.9678 46.6664 3.02957 46.6664 3.89524V4.82267H45.2775C44.5135 4.82267 43.8261 4.82379 43.7496 4.82509C43.6731 4.82638 43.5855 4.40904 43.5548 3.89765C43.5098 3.1505 43.4339 2.9678 43.1689 2.9678C42.9876 2.9678 42.7835 3.02345 42.7157 3.09152ZM48.0863 3.09152C48.0183 3.15941 47.9627 4.24451 47.9627 5.50286V7.79047H48.4257C48.8578 7.79047 48.8887 7.72871 48.8887 6.86304C48.8887 6.35295 48.9409 5.9356 49.005 5.9356C49.0689 5.9356 49.6832 6.35295 50.3702 6.86304C51.1247 7.42321 51.8119 7.79047 52.1058 7.79047C52.3736 7.79047 52.5925 7.707 52.5925 7.60499C52.5925 7.50297 52.5301 7.41894 52.4536 7.41839C52.3771 7.41783 51.7503 6.96617 51.0606 6.41471L49.8065 5.41197L51.2938 4.23616C52.7616 3.07612 52.7736 3.0598 52.2055 3.001C51.7432 2.95333 51.369 3.1429 50.3056 3.96331L48.9813 4.98498L48.9257 3.97648C48.8804 3.1531 48.8096 2.9678 48.54 2.9678C48.3583 2.9678 48.154 3.02345 48.0863 3.09152ZM18.1875 5.40807C18.2332 7.39056 18.2786 7.66861 18.5636 7.71034C18.8382 7.75041 18.8877 7.60424 18.8877 6.75397C18.8877 6.20177 18.9399 5.75011 19.004 5.75011C19.0679 5.75011 19.672 6.15614 20.3466 6.65251C21.0211 7.14887 21.8028 7.59645 22.0839 7.64728C22.7361 7.76525 22.595 7.59738 21.0348 6.39932C20.3707 5.88923 19.8279 5.43015 19.8288 5.37914C19.8298 5.32813 20.4468 4.82731 21.2 4.26621C22.4106 3.36456 22.5165 3.23917 22.1124 3.18686C21.7885 3.14494 21.3063 3.40221 20.4605 4.06792C19.8036 4.58506 19.1808 5.00816 19.0768 5.00816C18.9729 5.00816 18.8877 4.59081 18.8877 4.08072C18.8877 3.27218 18.8393 3.15329 18.5116 3.15329C18.1514 3.15329 18.1377 3.24844 18.1875 5.40807ZM28.7028 5.37914C28.7028 7.23401 28.7491 7.60499 28.9806 7.60499C29.2121 7.60499 29.2584 7.23401 29.2584 5.37914C29.2584 3.52426 29.2121 3.15329 28.9806 3.15329C28.7491 3.15329 28.7028 3.52426 28.7028 5.37914ZM0.110948 3.65874C0.0489092 3.72069 -0.00109298 4.27938 1.81669e-05 4.90002C0.00205527 6.17061 0.530407 7.51744 1.38303 8.42577L1.8923 8.96813L2.2475 8.51851C2.44288 8.27107 2.72289 7.84723 2.86993 7.57661C3.10068 7.15203 3.10123 7.07078 2.87382 6.98342C2.46658 6.82687 2.01583 5.80631 1.97731 4.954C1.94416 4.21761 1.90545 4.1705 1.0832 3.865C0.610409 3.68953 0.172802 3.5966 0.110948 3.65874ZM8.68883 4.00412C8.1127 4.24395 8.03751 4.34764 8.10492 4.80839C8.19011 5.38952 7.54305 7.04852 7.231 7.04852C6.91266 7.04852 7.00155 7.30023 7.61453 8.13511L8.19362 8.9238L8.64457 8.49941C8.89272 8.26606 9.25496 7.817 9.44941 7.50167C10.2311 6.23479 10.3765 3.69788 9.66608 3.71939C9.49237 3.72459 9.05273 3.85276 8.68883 4.00412ZM16.0431 3.98056C16.2554 4.12951 16.5341 4.50512 16.6624 4.81525C16.8498 5.26859 16.8498 5.48969 16.6624 5.94302C16.5341 6.25315 16.2554 6.62877 16.0431 6.77771C15.8307 6.92666 15.294 7.04852 14.8507 7.04852C14.2062 7.04852 13.9355 6.93964 13.5029 6.50634C13.1334 6.1363 12.9616 5.77831 12.9616 5.37914C12.9616 4.97997 13.1334 4.62198 13.5029 4.25193C13.9355 3.81863 14.2062 3.70975 14.8507 3.70975C15.294 3.70975 15.8307 3.83161 16.0431 3.98056ZM39.8726 4.92172C40.0443 5.28231 40.1847 5.65792 40.1847 5.75642C40.1847 5.85491 39.8513 5.9356 39.4439 5.9356C39.0365 5.9356 38.7032 5.85491 38.7032 5.75642C38.7032 5.48709 39.31 4.26621 39.4439 4.26621C39.508 4.26621 39.701 4.56114 39.8726 4.92172ZM35.8327 6.30657C35.8327 6.75935 35.7968 6.77159 34.3049 6.82408L32.777 6.87806V6.30657V5.73509L34.3049 5.78906C35.7968 5.84156 35.8327 5.8538 35.8327 6.30657ZM2.98308 8.09987C2.66085 8.49087 2.42028 8.93586 2.44843 9.08889C2.51381 9.44428 4.12571 10 5.09093 10C5.92818 10 7.62768 9.46654 7.7199 9.17495C7.80954 8.89116 6.63209 7.35829 6.49505 7.58032C6.31153 7.87784 4.96204 8.11359 4.3659 7.95222C4.06904 7.8719 3.76829 7.71238 3.69755 7.59757C3.61643 7.46643 3.3518 7.65247 2.98308 8.09987Z" fill="#333333"/>
</svg>
