<svg width="46" height="11" viewBox="0 0 46 11" fill="none" xmlns="http://www.w3.org/2000/svg">
<path d="M3.17188 5.50008C3.17188 4.19824 4.23707 3.14282 5.55129 3.14282C6.86553 3.14282 7.9305 4.19824 7.9305 5.50008C7.9305 6.80169 6.86553 7.85711 5.55129 7.85711C4.23707 7.85711 3.17188 6.80169 3.17188 5.50008Z" fill="#333333"/>
<path d="M7.27307 2.4098C7.27307 1.63767 7.90503 1.01162 8.68443 1.01162C9.46408 1.01162 10.0963 1.63767 10.0963 2.4098C10.0963 3.18217 9.46408 3.80822 8.68443 3.80822C7.90503 3.80822 7.27307 3.18217 7.27307 2.4098ZM0 5.50027C0 2.46467 2.48214 0.00370737 5.54512 0V1.98765C3.58987 1.99111 2.00614 3.5623 2.00614 5.50027C2.00614 7.44022 3.59362 9.01265 5.55161 9.01265C7.49811 9.01265 9.09733 7.45505 9.09733 5.48693L11.1034 5.48811C11.1034 8.5378 8.61805 11 5.55161 11C2.4854 11 0 8.5378 0 5.50022" fill="#333333"/>
<path d="M23.7994 7.27725C24.1929 7.324 24.6205 7.19457 24.9105 6.95606C25.2425 6.67685 25.5409 6.10069 25.5409 5.47519C25.5409 4.78432 25.0933 4.70207 24.9271 4.70207C24.6868 4.70207 24.5044 4.82544 24.3303 4.94058L23.7994 7.27725ZM24.4713 4.12634C24.6868 3.9783 25.0432 3.73113 25.5824 3.73113C26.4112 3.73113 26.967 4.34798 26.967 5.39294C26.967 5.98555 26.7598 6.68464 26.3283 7.20323C25.5078 8.19841 24.4713 8.19019 23.5922 8.19019L23.1202 10.1567L23.0626 10.1979C22.8715 10.1979 22.6892 10.1892 22.4986 10.1892C22.2167 10.1892 21.9681 10.2061 21.6614 10.2143L21.6195 10.1567C21.6195 10.1567 21.9118 9.2845 22.2752 7.78545C22.6569 6.21238 23.0137 4.36962 23.0452 3.99432L23.1032 3.93674L24.521 3.70689L24.5711 3.76403L24.4713 4.12634ZM21.4712 8.09972L21.4049 8.16552C21.1392 8.2153 20.8277 8.25599 20.6584 8.25599C20.0324 8.25599 19.1137 8.16205 19.5028 6.59504C19.765 5.53536 19.9539 4.74319 19.9539 4.74319L19.3733 4.75964L19.3235 4.69385L19.5643 3.86272L19.6224 3.82203H20.1694L20.4098 2.76018L20.4678 2.70304C21.0899 2.56323 21.2552 2.52167 21.8276 2.35718L21.8773 2.40653L21.5126 3.83848L22.3581 3.82203L22.3916 3.87917C22.2751 4.22461 22.2419 4.31551 22.1342 4.70207L22.0679 4.75964L21.3053 4.74319C21.3053 4.74319 21.1504 5.38169 20.9336 6.27038C20.6993 7.2318 20.8224 7.18245 21.0571 7.27422C21.2577 7.35301 21.5208 7.25258 21.67 7.20323L21.7197 7.24435L21.4711 8.09972H21.4712ZM16.837 4.59515C16.447 4.59515 16.0059 4.79211 15.7511 5.99031C15.468 7.32357 16.0325 7.40885 16.3065 7.40885C16.5552 7.40885 17.0848 7.27422 17.3478 5.99767C17.5323 5.10508 17.3862 4.59515 16.837 4.59515ZM18.773 5.99767C18.4166 8.01531 17.1515 8.27244 16.0805 8.27244C15.0235 8.27244 14.0489 7.54997 14.3247 5.98771C14.5401 4.76657 15.2709 3.63676 17.0472 3.7229C18.2862 3.78307 19.0151 4.62588 18.773 5.99767Z" fill="#333333"/>
<path d="M44.0805 5.91096L45.3733 8.50905L45.3232 8.57948L44.3975 8.60591L44.3307 8.55263C44.1143 7.93403 43.171 5.99021 43.171 5.99021C42.9291 7.10878 42.8791 7.37289 42.6701 8.53502L42.6122 8.5883L41.7693 8.60591L41.736 8.55263C41.736 8.55263 42.1811 6.6 42.5661 4.79241C42.7465 3.94723 43.0265 2.60903 43.1376 1.79814L43.1956 1.74531L44.1051 1.58684L44.1556 1.64847C43.9875 2.25687 43.1956 5.86695 43.1956 5.86695C43.7939 5.3137 44.7895 4.21135 44.9229 4.06168L45.0147 4.00886H45.9743L45.9992 4.08809C45.7621 4.28549 45.3232 4.70437 45.1647 4.85404L44.0805 5.91097L44.0805 5.91096ZM40.8923 8.53731L40.826 8.59014L39.9749 8.61653L39.9415 8.55537C40.0639 7.96226 40.5775 5.97581 40.5841 5.35814C40.5894 4.8299 40.2755 4.65383 39.8831 4.65383C39.366 4.65383 39.0236 4.92675 38.7734 5.1209C38.4648 6.59996 38.3647 7.06657 38.0978 8.5373L38.039 8.59012L37.1887 8.61651L37.1465 8.55535C37.1465 8.55535 37.3998 7.4771 37.6285 6.35621C37.8077 5.4786 37.9547 4.75575 38.0223 4.15198L38.0811 4.09035C38.4731 4.03753 38.5649 4.01992 38.9656 3.93188L39.0074 3.99305L38.8906 4.44205C39.2159 4.21361 39.6329 3.90501 40.3251 3.90501C40.6004 3.90501 41.5016 3.98471 41.5016 5.04998C41.5016 5.68711 40.974 7.91544 40.8923 8.53728M36.1439 4.67145C36.0184 4.67145 35.8937 4.66267 35.7682 4.66267C35.493 4.66267 34.9508 4.68027 34.4583 5.03289C33.5825 5.66632 33.5658 6.80249 33.5658 6.84697C33.5658 7.26956 33.7827 7.94747 34.5417 7.94747C34.7673 7.94747 35.1396 7.89186 35.543 7.51561L36.1439 4.67147V4.67145ZM36.7611 5.79002C36.4692 7.14629 36.4108 7.48084 36.244 8.52897L36.1852 8.59014L35.4012 8.60775L35.3595 8.54612L35.4179 8.19443C35.2761 8.31722 34.9091 8.64296 34.1997 8.64296C33.3486 8.64296 32.6563 8.00908 32.6563 6.90812C32.6563 6.21261 32.9732 5.455 33.324 5.0148C34.0997 4.05471 35.176 4.00189 35.9438 4.00189L37.0947 4.01115L37.1365 4.08112L36.7611 5.79002ZM28.7758 7.90343C29.2477 7.9266 29.9439 7.91225 30.486 7.52486C31.1032 7.07539 31.3956 6.29184 31.3956 5.72793C31.3956 4.92677 30.9364 4.61863 30.4026 4.61863C29.9768 4.61863 29.6766 4.81231 29.4097 4.98839C29.4097 4.98839 28.8276 7.6875 28.7758 7.90343ZM27.7578 8.54612C27.8136 8.27922 28.1731 6.71443 28.541 4.95457C28.8552 3.44538 29.0743 2.50382 29.1511 1.80043L29.2179 1.73834L30.1274 1.57153L30.1691 1.63316L29.9356 2.61086L29.5515 4.30169C29.9022 4.09919 30.2354 3.90504 30.7696 3.90504C31.5953 3.90504 32.288 4.49491 32.288 5.60513C32.288 6.05414 32.1546 6.89932 31.5953 7.57768C30.8447 8.48495 29.9189 8.54612 28.8425 8.59014H28.3838L27.7995 8.59892L27.7578 8.5461V8.54612Z" fill="#333333"/>
</svg>
