<svg width="54" height="9" viewBox="0 0 54 9" fill="none" xmlns="http://www.w3.org/2000/svg">
<path fill-rule="evenodd" clip-rule="evenodd" d="M0 1.875V3.75L0.647368 3.75125C1.79367 3.75342 2.73448 4.07117 3.27384 4.63842C3.39764 4.7685 3.60221 5.1 3.72842 5.375C3.92413 5.80117 3.96339 6.0135 3.9943 6.8125L4.03055 7.75H5.94125H7.85195V3.875V0H3.92597H0V1.875ZM6.26485 3.875V6.16667H5.93231C5.63753 6.16667 5.59401 6.14067 5.54915 5.9375C5.27951 4.7175 4.98231 4.12108 4.31197 3.45492C3.73352 2.88008 3.16567 2.5735 2.25535 2.34433C1.62953 2.18675 1.62886 2.18625 1.60297 1.885L1.57699 1.58333H3.92096H6.26485V3.875ZM8.93785 5.41667V7.75H9.56434H10.1908V5.875V4H11.2767H12.3626V5.875V7.75H13.0309H13.6991V5.41667V3.08333H11.3185H8.93785V5.41667ZM36.002 5.41667V7.75H37.6574C39.5325 7.75 39.9743 7.66842 40.4123 7.24108C40.7305 6.93083 40.7973 6.716 40.745 6.17283C40.6954 5.65742 40.4469 5.31408 39.9483 5.07175C39.6071 4.906 39.3926 4.87475 38.4035 4.84683L37.255 4.81442V4.40725V4H38.8003H40.3456V3.54167V3.08333H38.1738H36.002V5.41667ZM16.1787 4.37075C16.0034 4.43308 15.7936 4.544 15.7127 4.61708C15.5177 4.79308 15.4533 4.78467 15.4533 4.58333C15.4533 4.43375 15.3976 4.41667 14.9103 4.41667H14.3674V6.70833V9H14.9521H15.5368V8.25C15.5368 7.8375 15.5535 7.5 15.5738 7.5C15.5941 7.5 15.7404 7.57625 15.8988 7.6695C16.4801 8.01175 17.3642 7.965 17.9663 7.56025C18.7871 7.00833 18.9257 5.58867 18.2333 4.82408C17.7696 4.31208 16.8894 4.11783 16.1787 4.37075ZM28.951 4.33792C28.3256 4.49442 27.9489 4.83042 27.8819 5.29167C27.86 5.44225 27.912 5.46067 28.4215 5.483C28.8592 5.50208 28.9854 5.48167 28.9854 5.39175C28.9854 5.0315 29.8158 4.78508 30.1948 5.03283C30.4034 5.16917 30.4954 5.60133 30.3366 5.69925C30.2988 5.72258 29.9323 5.78283 29.5221 5.83308C28.1324 6.00358 27.7439 6.21617 27.6729 6.84508C27.6352 7.17917 27.6593 7.25858 27.8691 7.48975C28.3257 7.99292 29.5876 8.04558 30.2314 7.58825C30.4687 7.41967 30.4702 7.41967 30.5134 7.58442C30.5517 7.73017 30.6284 7.75 31.1543 7.75C31.6113 7.75 31.7365 7.7255 31.6867 7.64583C31.6509 7.58858 31.6205 6.99142 31.6191 6.31892C31.6163 4.9355 31.5556 4.76575 30.9581 4.46958C30.5899 4.28708 29.4523 4.21242 28.951 4.33792ZM42.3922 4.32317C41.7619 4.48817 41.2645 4.92042 41.2645 5.30292C41.2645 5.48975 41.2925 5.5 41.8028 5.5C42.3079 5.5 42.348 5.48583 42.451 5.27083C42.6363 4.88417 43.392 4.80108 43.7228 5.13108C43.8812 5.28908 43.8885 5.42108 43.7495 5.61042C43.6759 5.71075 43.4429 5.77567 42.9588 5.83067C42.0143 5.93808 41.6358 6.0525 41.3333 6.32217C41.1258 6.50708 41.0746 6.61867 41.0746 6.88558C41.0746 7.60167 41.4614 7.874 42.4769 7.87333C43.0196 7.873 43.2066 7.8375 43.4632 7.68642C43.8349 7.46767 43.9375 7.45433 43.9375 7.625C43.9375 7.72525 44.0646 7.75 44.5807 7.75C45.0809 7.75 45.2016 7.72775 45.1236 7.65C45.055 7.5815 45.0234 7.17317 45.0234 6.35417C45.0234 4.92742 44.9581 4.73983 44.3701 4.478C43.9475 4.28983 42.8482 4.20375 42.3922 4.32317ZM19.0451 5.71658C19.0451 7.25267 19.1148 7.48108 19.664 7.74633C20.2286 8.019 20.9361 7.94867 21.4884 7.56492C21.7166 7.40642 21.7181 7.4065 21.7181 7.57767C21.7181 7.73658 21.7669 7.75 22.3446 7.75H22.9711V6.08333V4.41667H22.3446H21.7181V5.58975V6.76283L21.474 7.00642C21.1817 7.298 20.7541 7.33342 20.4536 7.09092C20.2645 6.93833 20.2553 6.87967 20.2295 5.67425L20.2026 4.41667H19.6238H19.0451V5.71658ZM23.5558 6.08333V7.75H25.1038C27.1303 7.75 27.3983 7.64525 27.3983 6.85333C27.3983 6.46883 27.157 6.19767 26.7411 6.11467L26.4677 6.06017L26.7868 5.88167C27.2083 5.64592 27.3573 5.33933 27.233 4.96358C27.0743 4.484 26.8078 4.41667 25.0677 4.41667H23.5558V6.08333ZM31.8254 4.75V5.08333H32.4937H33.1619V6.41667V7.75H33.7467H34.3314V6.42V5.09008L35.0205 5.06583L35.7096 5.04167L35.7355 4.72917L35.7615 4.41667H33.7934H31.8254V4.75ZM45.6081 6.08333V7.75H46.1928H46.7775V7.04167V6.33333H47.5293H48.2811V7.04167V7.75H48.8658H49.4506V6.08333V4.41667H48.8658H48.2811V5.04167V5.66667H47.5293H46.7775V5.04167V4.41667H46.1928H45.6081V6.08333ZM50.0353 6.08333V7.75H50.6585H51.2817L51.3059 7.0285L51.33 6.30708L51.9504 7.0285L52.5709 7.75H53.2855H54L53.1244 6.86808L52.2489 5.98617L53.0815 5.20142L53.9141 4.41667H53.2359H52.5576L51.9229 5.09617L51.2882 5.77567V5.09617V4.41667H50.6618H50.0353V6.08333ZM0 6.29358V7.83708L1.52445 7.81442L3.04889 7.79167L3.0717 6.27083L3.09442 4.75H1.54725H0V6.29358ZM17.0913 5.17525C17.5568 5.6115 17.5458 6.51242 17.0694 6.98775C16.8101 7.24642 16.7523 7.26742 16.4065 7.22858C15.9174 7.17358 15.6541 6.926 15.545 6.4185C15.4099 5.78975 15.6371 5.18325 16.0798 4.99117C16.3488 4.87442 16.8719 4.96958 17.0913 5.17525ZM26.0098 5.26925C26.1679 5.52025 25.8891 5.6955 25.2692 5.73483L24.7253 5.76942V5.42275V5.076L25.3221 5.1005C25.7792 5.11925 25.9402 5.15875 26.0098 5.26925ZM39.1232 5.92275C39.4214 6.15675 39.4224 6.52783 39.1252 6.72208C38.9593 6.8305 38.7144 6.86583 38.1019 6.86983L37.2967 6.875L37.272 6.3125L37.2474 5.75H38.0752C38.7863 5.75 38.9341 5.77433 39.1232 5.92275ZM30.4054 6.42217C30.4054 6.7655 30.2824 6.973 29.9894 7.12417C29.4597 7.39742 28.822 7.16192 28.93 6.73292C28.9967 6.46742 29.2008 6.38733 30.3428 6.17817C30.3773 6.17183 30.4054 6.28167 30.4054 6.42217ZM43.8264 6.47025C43.7667 6.837 43.5009 7.13925 43.1752 7.21067C42.5612 7.34517 42.0502 6.92917 42.4003 6.57992C42.5317 6.44867 43.2022 6.25567 43.8022 6.17642C43.8427 6.17108 43.8536 6.30333 43.8264 6.47025ZM26.0618 6.5C26.2439 6.68167 26.259 6.74033 26.1625 6.89167C26.0543 7.06158 25.7613 7.12617 25.2326 7.09675L24.7253 7.0685V6.70092V6.33333H25.31C25.7834 6.33333 25.9265 6.36508 26.0618 6.5Z" fill="#333333"/>
</svg>
