<svg width="18" height="18" viewBox="0 0 18 18" fill="none" xmlns="http://www.w3.org/2000/svg">
<path fill-rule="evenodd" clip-rule="evenodd" d="M6.99471 0.1934C5.34855 0.578142 3.82063 1.4389 2.62027 2.65775C1.84781 3.44218 1.32038 4.19575 0.856936 5.17711C0.429927 6.08149 0.156144 7.08232 0.0459401 8.14123C-0.122857 9.76372 0.174284 11.3936 0.924439 12.9593C1.38588 13.9224 2.10265 14.9041 2.84301 15.5873C3.95484 16.6131 5.42296 17.4207 6.82334 17.7769C7.66508 17.991 9.5924 18.0708 10.4719 17.9282C13.5191 17.4338 16.2132 15.2659 17.3497 12.3938C17.6704 11.5832 17.8534 10.8191 17.9572 9.8575C18.0685 8.82598 17.9598 7.59727 17.6651 6.55799C17.4171 5.68342 16.8572 4.49212 16.3733 3.80979C15.0059 1.88124 12.9519 0.549304 10.6668 0.109311C10.3137 0.0412969 9.60749 -0.00321133 8.93406 0.000181315C8.04361 0.00462406 7.6235 0.0464666 6.99471 0.1934ZM15.8117 6.22786C15.731 6.31752 15.5962 6.42802 15.512 6.47334C15.4277 6.51874 15.0376 6.58263 14.6451 6.61535C14.0135 6.66801 13.9042 6.70097 13.6955 6.90219C13.5658 7.02723 13.4175 7.25841 13.3658 7.41601C13.0614 8.3443 13.4946 10.0145 14.1447 10.4187C14.4844 10.6301 14.8315 10.6207 15.042 10.3946C15.2982 10.1193 15.3825 9.81614 15.3806 9.17768C15.3778 8.25448 15.0266 7.66836 14.4763 7.66836C14.3508 7.66836 14.1786 7.70576 14.0937 7.75156C13.888 7.8623 13.6968 8.24834 13.6968 8.55287C13.6968 8.71798 13.6571 8.79924 13.5764 8.79924C13.4083 8.79924 13.4197 8.3464 13.5966 7.9972C13.7807 7.63387 14.0757 7.42449 14.4808 7.36981C15.2103 7.27134 15.9467 7.9363 16.0647 8.79988C16.1683 9.55749 15.7416 10.466 15.1336 10.7824C15.01 10.8468 14.7249 10.8994 14.5003 10.8994C13.7257 10.8994 13.1771 10.4296 12.9702 9.58908C12.9154 9.36662 12.8894 8.84496 12.9079 8.33703C12.9341 7.61238 12.9744 7.39048 13.1479 7.0135C13.2752 6.73692 13.4748 6.46962 13.6605 6.32689C13.9454 6.10799 14.0195 6.09151 14.83 6.06598C15.494 6.04506 15.7197 6.00928 15.7998 5.91202C15.8938 5.7978 15.9067 5.79909 15.9312 5.92511C15.9461 6.00192 15.8923 6.1382 15.8117 6.22786ZM5.18875 7.49735C5.18875 7.53661 5.11651 7.58774 5.02822 7.61101C4.87491 7.65131 4.86769 7.72119 4.86769 9.16273C4.86769 10.6043 4.87491 10.6742 5.02822 10.7145C5.37849 10.8067 5.15712 10.8994 4.58676 10.8994C4.0164 10.8994 3.79503 10.8067 4.14531 10.7145C4.29861 10.6742 4.30583 10.6043 4.30583 9.17033V7.66836H3.54332H2.7808V9.17033C2.7808 10.6043 2.78803 10.6742 2.94133 10.7145C3.02962 10.7377 3.10186 10.7889 3.10186 10.8281C3.10186 10.8673 2.81074 10.8994 2.45501 10.8994C2.04421 10.8994 1.82629 10.87 1.85776 10.8187C1.88505 10.7742 1.95552 10.7379 2.01443 10.7379C2.07335 10.7379 2.14342 10.6804 2.17023 10.6101C2.23372 10.4436 2.23372 7.88185 2.17023 7.71537C2.14342 7.64509 2.07335 7.58758 2.01443 7.58758C1.95552 7.58758 1.88505 7.55123 1.85776 7.5068C1.82525 7.45389 2.392 7.42603 3.49845 7.42603C4.42808 7.42603 5.18875 7.45818 5.18875 7.49735ZM6.39272 7.5068C6.39272 7.55123 6.3566 7.58758 6.31245 7.58758C6.16405 7.58758 6.2301 7.80479 6.64347 8.67565L7.05474 9.54206L7.44403 8.66579C7.65818 8.18388 7.83428 7.74413 7.8354 7.68855C7.83652 7.63306 7.80137 7.58758 7.75722 7.58758C7.71308 7.58758 7.67696 7.55123 7.67696 7.5068C7.67696 7.45809 8.00363 7.42667 8.49967 7.42764L9.32239 7.42926L9.87525 8.68001L10.428 9.93068L10.9742 8.70998C11.2746 8.03856 11.5364 7.47304 11.5561 7.45333C11.5757 7.43354 11.8035 7.43095 12.0624 7.44743C12.4178 7.47013 12.4888 7.49323 12.3524 7.54194C12.1737 7.60576 12.1718 7.6228 12.1718 9.1343C12.1718 10.4179 12.191 10.6696 12.2922 10.7086C12.5756 10.8181 12.3704 10.8994 11.8106 10.8994C11.2402 10.8994 11.0189 10.8067 11.3691 10.7145C11.5208 10.6746 11.5297 10.6043 11.5297 9.43956C11.5297 8.7616 11.5163 8.222 11.5001 8.2405C11.4839 8.25908 11.2079 8.86491 10.8868 9.58682C10.5657 10.3088 10.281 10.8989 10.2541 10.8982C10.2273 10.8976 9.9344 10.2604 9.60331 9.48229L9.00133 8.06764L8.97829 9.22098C8.96561 9.8554 8.97532 10.4561 8.99988 10.5561C9.02444 10.6561 9.09805 10.7379 9.16338 10.7379C9.2288 10.7379 9.28225 10.7742 9.28225 10.8187C9.28225 10.8631 9.0836 10.8994 8.8408 10.8994C8.40472 10.8994 8.24836 10.7965 8.55987 10.7145C8.71309 10.6742 8.7204 10.6043 8.7204 9.17509C8.7204 8.21037 8.69022 7.65915 8.63556 7.62514C8.58893 7.59614 8.46732 7.59348 8.36539 7.61916C8.21489 7.65721 8.05348 7.94954 7.50896 9.16976C7.1399 9.99684 6.76587 10.7244 6.67774 10.7865C6.58961 10.8486 6.4172 10.8994 6.29456 10.8994C6.11011 10.8994 6.07166 10.8645 6.07166 10.6969C6.07166 10.5192 6.0902 10.5058 6.22159 10.5884C6.42627 10.7171 6.61802 10.6263 6.68175 10.3705C6.72325 10.2041 6.60165 9.88601 6.12383 8.91103C5.78768 8.2254 5.45788 7.64324 5.39085 7.61739C5.11217 7.50971 5.30457 7.42603 5.83087 7.42603C6.15193 7.42603 6.39272 7.46068 6.39272 7.5068Z" fill="#333333"/>
</svg>
