<svg width="46" height="12" viewBox="0 0 46 12" fill="none" xmlns="http://www.w3.org/2000/svg">
<path fill-rule="evenodd" clip-rule="evenodd" d="M25.407 0.083633C24.7459 0.278045 24.3477 0.855413 24.3477 1.61966C24.3477 1.95372 24.3209 2.01216 24.168 2.01216C24.0082 2.01216 23.9883 2.0706 23.9883 2.53784C23.9883 3.04012 23.9983 3.06351 24.2129 3.06351H24.4375V4.15867V5.25383H25.0664H25.6953V4.15867V3.06351H26.3242H26.9531V4.16253V5.26154L27.6045 5.23578L28.2559 5.21002L28.2811 4.13677L28.3064 3.06351H28.7079H29.1094V2.53784V2.01216H28.6602H28.2109V1.62097C28.2109 1.18431 28.4119 0.998484 28.805 1.07173C29.0114 1.11019 29.0195 1.09223 29.0195 0.599846C29.0195 0.12376 29.0035 0.084071 28.7895 0.0317663C28.4279 -0.0568101 27.764 0.0489384 27.5044 0.236429C27.0568 0.559632 26.8633 0.940922 26.8633 1.49945V2.01216H26.2793H25.6953V1.62859C25.6953 1.1554 25.8516 1.0076 26.28 1.07541L26.5938 1.125V0.615091C26.5938 0.160294 26.5719 0.0994032 26.3916 0.0522676C26.1234 -0.0178224 25.7071 -0.00450534 25.407 0.083633ZM0 6.08615V12H6.01953H12.0391V6.08615V0.172297H6.01953H0V6.08615ZM22.5917 0.387386C21.9707 0.992877 22.8207 1.94225 23.4849 1.38503C23.8052 1.11632 23.8276 0.690788 23.5372 0.389313C23.2643 0.106149 22.8808 0.105361 22.5917 0.387386ZM33.3729 0.387386C32.9731 0.777174 33.1528 1.41491 33.6952 1.53108C34.2191 1.64331 34.6836 1.125 34.4943 0.63936C34.3003 0.141808 33.7512 0.0184492 33.3729 0.387386ZM11.6797 6.08615V11.6495H6.01953H0.359375V6.08615V0.522747H6.01953H11.6797V6.08615ZM13.8359 2.93595V5.26154L14.4873 5.23578L15.1387 5.21002L15.1836 4.52857L15.2285 3.84703L15.7227 4.52857L16.2168 5.21002L16.958 5.23543C17.3656 5.24945 17.6992 5.23709 17.6992 5.20801C17.6992 5.17892 17.415 4.76425 17.0677 4.28659L16.4363 3.41799L16.7975 3.0997C17.4358 2.53749 17.4983 1.76842 16.955 1.16495C16.5258 0.68816 16.2461 0.61036 14.9619 0.61036H13.8359V2.93595ZM2.08905 1.40799C1.42321 1.72944 0.849293 2.64166 0.744355 3.54538L0.693504 3.98345L0.91407 3.78632C1.03536 3.67794 1.1712 3.58919 1.21595 3.58919C1.26069 3.58919 1.64396 3.9512 2.06757 4.39365L2.83798 5.19819L3.12602 4.99046C3.39268 4.79824 3.41406 4.74506 3.41406 4.27362C3.41406 3.99352 3.44641 3.76441 3.48594 3.76441C3.688 3.76441 3.77344 4.02252 3.77344 4.63248C3.77344 5.27345 3.78197 5.29877 4.10784 5.62417L4.44214 5.95806L2.66971 7.68815L0.89727 9.41814L1.6693 10.1615L2.44123 10.9048L4.15878 9.17116L5.87623 7.4374L7.67832 9.19315L9.48031 10.9489L10.2206 10.2846C10.6278 9.91929 10.9609 9.57383 10.9609 9.51706C10.9609 9.4602 10.172 8.64531 9.20773 7.70611L7.45461 5.99854L7.81515 5.67349L8.17578 5.34845V4.65762C8.17578 4.07807 8.20471 3.94122 8.35547 3.80822C8.53336 3.65122 8.53525 3.65534 8.5401 4.2108C8.54468 4.72824 8.56633 4.78834 8.81727 4.98188L9.0894 5.1918L9.93277 4.37288L10.776 3.55388L10.9866 3.7468C11.294 4.02839 11.348 3.98853 11.3013 3.51454C11.2115 2.60293 10.371 1.51023 9.60493 1.30907C8.95589 1.13866 8.70415 1.27245 7.55209 2.40029C6.532 3.39889 6.52535 3.40809 6.69228 3.58805C6.85849 3.76713 6.85562 3.77423 6.46534 4.16209C6.248 4.37805 6.04343 4.54452 6.01073 4.5319C5.97811 4.51937 5.781 4.35799 5.57256 4.17321L5.19378 3.83731L5.40446 3.61574L5.61523 3.39408L4.58203 2.42937C3.23204 1.16889 2.88174 1.02538 2.08905 1.40799ZM15.8992 1.83115C16.124 2.24083 15.9049 2.62545 15.4467 2.62545C15.1876 2.62545 15.1836 2.618 15.1836 2.14358V1.66171H15.4949C15.7107 1.66171 15.8347 1.71367 15.8992 1.83115ZM36.3051 1.92236C35.7355 2.01076 35.3086 2.47616 35.3086 3.00876C35.3086 3.51437 35.5036 3.7369 36.1181 3.9321C36.6906 4.11399 36.8517 4.3777 36.3904 4.3777C36.2369 4.3777 35.965 4.31804 35.786 4.24514C35.6071 4.17225 35.4516 4.12292 35.4406 4.13563C35.4295 4.14833 35.3311 4.33162 35.2217 4.54294C34.991 4.98898 35.0032 5.00466 35.7481 5.22062C36.7792 5.51965 37.6987 5.20082 37.9245 4.46593C38.0102 4.18714 38.0058 4.05722 37.9018 3.79087C37.7636 3.43657 37.55 3.29271 36.9482 3.14832C36.7056 3.09015 36.5664 3.0077 36.5664 2.92219C36.5664 2.81566 36.6621 2.79261 37.0266 2.81154C37.469 2.83441 37.4931 2.82363 37.6517 2.53328C37.8952 2.08742 37.869 2.02881 37.3975 1.96634C37.1627 1.93524 36.9101 1.89879 36.8359 1.88539C36.7618 1.87189 36.523 1.88854 36.3051 1.92236ZM18.8223 2.02653C18.1972 2.36288 17.8517 2.91641 17.8468 3.58919C17.8382 4.79255 19.0156 5.6494 20.0813 5.21519C20.3086 5.12258 20.448 5.10349 20.468 5.1621C20.4858 5.21423 20.7678 5.25383 21.1207 5.25383H21.7422V3.633V2.01216H21.1133C20.7434 2.01216 20.4844 2.04913 20.4844 2.10205C20.4844 2.15357 20.3713 2.13482 20.2193 2.05825C19.913 1.90378 19.0854 1.88504 18.8223 2.02653ZM30.1426 2.07016C29.0128 2.65095 28.797 3.92089 29.6815 4.78352C30.2766 5.36378 31.2113 5.49511 32.0348 5.114C32.3172 4.98337 32.793 4.45358 32.793 4.26976C32.793 4.1436 31.6677 4.19634 31.4849 4.33109C31.133 4.59069 30.5364 4.42002 30.4317 4.02997C30.3855 3.85772 30.4223 3.85203 31.5832 3.85203C32.2428 3.85203 32.8053 3.81593 32.8332 3.77177C32.8612 3.72762 32.8394 3.48791 32.7847 3.23918C32.6704 2.71981 32.2751 2.22366 31.8315 2.04291C31.436 1.88179 30.479 1.89721 30.1426 2.07016ZM39.2168 2.07016C38.087 2.65095 37.8712 3.92089 38.7557 4.78352C39.3593 5.37202 40.3342 5.49984 41.1374 5.09569C41.4337 4.94666 41.8672 4.46041 41.8672 4.27712C41.8672 4.13861 40.6418 4.19021 40.5195 4.3339C40.2815 4.61356 39.6083 4.4117 39.5059 4.02997C39.4597 3.85772 39.4965 3.85203 40.6574 3.85203C41.317 3.85203 41.8799 3.81514 41.9085 3.77011C41.9953 3.63317 41.7803 2.86253 41.5704 2.55843C41.2829 2.14183 40.7621 1.92385 40.0644 1.92805C39.7173 1.93016 39.3786 1.98693 39.2168 2.07016ZM44.001 2.05755C43.8157 2.12396 43.6641 2.14086 43.6641 2.09522C43.6641 2.04948 43.3811 2.01216 43.0352 2.01216H42.4062V3.633V5.25383H43.0352H43.6641V4.21606C43.6641 3.08296 43.7448 2.8868 44.2102 2.8896C44.6164 2.89214 44.6452 2.96863 44.6719 4.11828L44.6973 5.21002L45.3486 5.23578L46 5.26154V4.13729C46 3.14368 45.9765 2.96837 45.7979 2.6286C45.4613 1.98851 44.7897 1.77508 44.001 2.05755ZM22.3711 3.633V5.25383H23.0449H23.7188V3.633V2.01216H23.0449H22.3711V3.633ZM33.1523 3.633V5.25383H33.8262H34.5V3.633V2.01216H33.8262H33.1523V3.633ZM31.4234 2.954C31.4497 3.03224 31.3265 3.06351 30.9926 3.06351C30.5802 3.06351 30.5385 3.04739 30.6405 2.92763C30.7773 2.76686 31.3671 2.78666 31.4234 2.954ZM40.4976 2.954C40.5239 3.03224 40.4008 3.06351 40.0668 3.06351C39.6544 3.06351 39.6127 3.04739 39.7147 2.92763C39.8515 2.76686 40.4413 2.78666 40.4976 2.954ZM20.3191 3.12616C20.6376 3.39416 20.591 3.90197 20.2227 4.17777C19.977 4.36167 19.5098 4.31138 19.2674 4.075C18.6177 3.44147 19.6195 2.53749 20.3191 3.12616ZM14.2034 9.43733C13.9944 10.6781 13.8022 11.7658 13.7763 11.8544C13.7315 12.0067 13.8074 12.0138 15.1975 11.9858C16.5516 11.9585 16.6923 11.9402 17.0037 11.7514C17.7454 11.3017 18.0113 10.3288 17.5671 9.69036L17.3451 9.37136L17.5671 8.96414C17.822 8.49655 17.8414 8.26148 17.6597 7.83752C17.4267 7.29371 17.103 7.18201 15.7594 7.18166L14.5833 7.18131L14.2034 9.43733ZM19.055 9.55955C18.3587 10.8675 17.7891 11.9517 17.7891 11.9689C17.7891 11.986 18.1024 11.9999 18.4854 11.9997L19.1816 11.9995L19.4062 11.5836L19.6309 11.1677H20.43H21.2292L21.3536 11.5838L21.4781 12H22.1553C22.7591 12 22.8271 11.9834 22.783 11.8467C22.7559 11.7623 22.5084 10.7471 22.233 9.59065C21.9575 8.43417 21.7115 7.419 21.6862 7.33463C21.6479 7.20663 21.5314 7.18131 20.9805 7.18131H20.3208L19.055 9.55955ZM23.5555 9.52494C23.3959 10.814 23.2663 11.8982 23.2675 11.9343C23.2686 11.9704 23.5655 12 23.9272 12H24.5849L24.6971 10.9267C24.7587 10.3365 24.8329 9.68011 24.8619 9.46826C24.9261 9.00076 24.8598 8.92716 25.9775 10.7077L26.7888 12H27.4998C27.8909 12 28.2111 11.9901 28.2113 11.9781C28.2115 11.9661 28.3322 10.9903 28.4796 9.80968C28.8428 6.89911 28.8806 7.18131 28.1271 7.18131C27.611 7.18131 27.4966 7.20759 27.4592 7.33463C27.4345 7.419 27.3448 8.08932 27.2598 8.82439C27.1342 9.9107 27.0855 10.1321 26.9994 10.0072C26.9411 9.92262 26.519 9.25229 26.0613 8.5174L25.2293 7.18131H24.5374H23.8456L23.5555 9.52494ZM29.6962 7.37843C29.5957 7.81483 28.8398 11.81 28.8398 11.9052C28.8398 11.9764 29.0496 11.9997 29.5323 11.9818L30.2247 11.9562L30.3864 11.1677C30.4754 10.734 30.5589 10.3469 30.572 10.3075C30.5851 10.2682 30.8712 10.6328 31.2078 11.1179L31.8196 12H32.7106C33.2006 12 33.6016 11.9761 33.6016 11.9468C33.6016 11.8999 32.9288 10.9307 32.131 9.82826L31.8591 9.45249L33.021 8.31694L34.1829 7.18131H33.2752H32.3676L31.6594 7.96325C31.2698 8.39334 30.927 8.74817 30.8974 8.75176C30.8492 8.75763 30.9052 8.26832 31.0446 7.46605L31.0941 7.18131H30.4179C29.79 7.18131 29.7385 7.19541 29.6962 7.37843ZM16.2094 8.37345C16.5297 8.49331 16.3013 8.93356 15.9188 8.93356C15.7375 8.93356 15.7106 8.90105 15.7559 8.73643C15.7856 8.62805 15.8106 8.49006 15.8112 8.42979C15.8126 8.31186 15.981 8.28794 16.2094 8.37345ZM20.8314 9.51767C20.8876 9.79076 20.9336 10.047 20.9336 10.0872C20.9336 10.1273 20.7483 10.1601 20.5218 10.1601C20.2953 10.1601 20.1235 10.1277 20.14 10.0881C20.3474 9.58916 20.6307 9.02389 20.6741 9.02266C20.7044 9.02187 20.7751 9.24458 20.8314 9.51767ZM16.3368 10.3749C16.3738 10.6912 16.1688 10.861 15.7504 10.861C15.4341 10.861 15.3825 10.7328 15.511 10.2652C15.5591 10.09 15.6149 10.067 15.9365 10.09C16.2722 10.1139 16.3094 10.1403 16.3368 10.3749Z" fill="#333333"/>
</svg>
