<svg width="34" height="14" viewBox="0 0 34 14" fill="none" xmlns="http://www.w3.org/2000/svg">
<path fill-rule="evenodd" clip-rule="evenodd" d="M9.99991 3.33559C9.99991 5.40636 10.0308 6.8406 10.0815 7.11781C10.2538 8.0622 10.8625 8.96542 11.6847 9.49704C12.1881 9.8225 12.9524 10.0859 13.3934 10.0859H13.6864V9.64742C13.6864 9.13982 13.53 8.93313 13.0846 8.85267C12.3776 8.72486 11.618 8.03255 11.351 7.27249C11.2135 6.88109 11.2037 6.637 11.2037 3.61137V0.369492L11.019 0.184783C10.8674 0.0330427 10.7598 0 10.4171 0H9.99991V3.33559ZM1.32888 2.36545C0.736328 2.57696 0.280627 3.05897 0.0974288 3.66789C-0.0358131 4.11085 -0.0333303 4.32273 0.11067 4.80798C0.237066 5.2337 0.601506 5.69404 1.0141 5.94912C1.1824 6.05322 2.19823 6.30634 4.03502 6.70195C7.47682 7.4432 7.33989 7.40391 7.52045 7.70024C7.70613 8.005 7.70613 8.25301 7.5203 8.55792C7.28775 8.93945 7.06543 8.96512 4.20325 8.94096L1.64133 8.91928L1.30857 8.56176C0.977156 8.20574 0.973695 8.20423 0.484665 8.20423C-0.0681643 8.20423 -0.0663586 8.2016 0.104275 8.77386C0.252038 9.26943 0.61407 9.69003 1.07918 9.90672C1.45919 10.0838 1.47205 10.0845 4.34853 10.0852C6.34633 10.0857 7.3274 10.0587 7.53166 9.99742C7.90656 9.88505 8.453 9.40657 8.66591 9.00418C8.89681 8.56778 8.89794 7.69226 8.66817 7.25826C8.48384 6.91007 7.98398 6.42978 7.68251 6.31131C7.57086 6.26743 6.18548 5.95168 4.6038 5.60959C3.02213 5.26757 1.64103 4.93059 1.53458 4.86082C1.12575 4.59279 1.08933 4.08225 1.45317 3.71825L1.70897 3.46234H4.41398H7.119L7.29926 3.6487C7.39842 3.75114 7.53881 3.90356 7.61119 3.98741C7.71817 4.11122 7.83441 4.13975 8.23188 4.13975C8.68096 4.13975 8.72091 4.12665 8.72091 3.97913C8.72091 3.39889 8.24271 2.72019 7.63421 2.43673C7.2557 2.26038 7.24005 2.25955 4.43249 2.26211C2.27151 2.26407 1.54511 2.28823 1.32888 2.36545ZM17.0344 2.32579C16.1962 2.53925 15.4092 3.18678 15.0194 3.98364L14.7774 4.47846V6.17365V7.86891L15.0239 8.36982C15.3371 9.00622 15.8471 9.5154 16.4702 9.81399L16.9592 10.0483H19.2555H21.5519L22.0526 9.80165C22.6802 9.49252 23.1766 8.9941 23.4886 8.35981L23.7304 7.86839V6.17342C23.7304 4.48982 23.729 4.4756 23.5275 4.04544C23.2437 3.43968 22.6468 2.83332 22.0431 2.53782L21.5485 2.29568L19.4043 2.28198C18.225 2.27445 17.1586 2.29417 17.0344 2.32579ZM25.5553 2.39014C25.1224 2.65862 25.1115 2.74699 25.1368 5.77834C25.1625 8.85929 25.1547 8.80916 25.698 9.41199C26.0237 9.7735 26.6172 10.0841 26.9843 10.0852L27.2288 10.0859V9.667C27.2288 9.16797 27.1503 8.99801 26.8471 8.84115C26.7223 8.77657 26.5542 8.61535 26.4734 8.4828C26.3359 8.25722 26.3265 8.08952 26.3263 5.8521L26.326 3.46234H28.0485C29.548 3.46234 29.8329 3.48145 30.2491 3.61016C31.4247 3.97363 32.3313 4.90515 32.6586 6.08588C32.7829 6.53478 32.7962 6.92264 32.7962 10.1066V13.6304L32.9809 13.8151C33.1325 13.9668 33.2401 13.9999 33.5828 13.9999H34L33.9987 10.2929C33.9977 7.33157 33.9752 6.47999 33.8872 6.05909C33.6015 4.69312 32.6038 3.40077 31.3668 2.79456C30.4004 2.32097 29.987 2.26053 27.7178 2.26136C26.0079 2.26196 25.7358 2.27814 25.5553 2.39014ZM21.581 3.64795C22.01 3.8654 22.3577 4.25785 22.4784 4.66076C22.6146 5.11553 22.5915 7.46608 22.4475 7.81148C22.3004 8.16457 21.9372 8.54633 21.5485 8.75655C21.2617 8.91168 21.1545 8.91928 19.2539 8.91928C17.3394 8.91928 17.2477 8.91266 16.9484 8.75249C16.5543 8.54158 16.1439 8.06551 16.0309 7.68804C15.9794 7.51613 15.9438 6.87462 15.9443 6.12563C15.9449 4.94791 15.958 4.82725 16.1223 4.47846C16.322 4.05492 16.5212 3.85177 16.9592 3.62492C17.2406 3.47905 17.3881 3.46881 19.2375 3.46565C21.1935 3.46234 21.2189 3.46437 21.581 3.64795ZM29.7868 6.00836C29.7868 6.60396 29.9593 6.77414 30.5628 6.77414H30.9906V6.48428C30.9906 5.82011 30.7528 5.56985 30.1218 5.56985H29.7868V6.00836ZM0.753933 12.3864C0.0656795 12.9658 0.522208 14.0748 1.40893 13.9776C1.82325 13.9322 2.15971 13.6509 1.99584 13.4869C1.90278 13.3937 1.86516 13.3957 1.71424 13.5015C1.44249 13.692 1.08519 13.6584 0.901921 13.4252C0.708415 13.1792 0.703299 12.9402 0.886723 12.7136C1.06315 12.4956 1.49688 12.4771 1.7189 12.678C1.84101 12.7887 1.89367 12.7981 1.98147 12.7252C2.12562 12.6055 2.06965 12.4781 1.80407 12.3212C1.47664 12.1277 1.02824 12.1556 0.753933 12.3864ZM5.78673 13.0887V13.9999H5.97482C6.13958 13.9999 6.16291 13.9673 6.16291 13.7364C6.16291 13.4857 6.17562 13.473 6.42525 13.473C6.65389 13.473 6.70167 13.5068 6.79759 13.7364C6.88253 13.9399 6.9513 13.9999 7.09951 13.9999C7.3268 13.9999 7.32627 14.0027 7.16542 13.6654C7.04662 13.4161 7.04707 13.3926 7.17294 13.2534C7.3611 13.0455 7.34741 12.5923 7.14691 12.3917C7.01698 12.2617 6.87569 12.227 6.38703 12.2048L5.78673 12.1775V13.0887ZM11.0532 13.059V13.9246H11.7679C12.4325 13.9246 12.4827 13.9141 12.4827 13.7741C12.4827 13.6378 12.4325 13.6235 11.956 13.6235C11.4444 13.6235 11.4294 13.6182 11.4294 13.4354C11.4294 13.2556 11.4495 13.2472 11.8808 13.2472C12.3121 13.2472 12.3322 13.2388 12.3322 13.059C12.3322 12.879 12.3125 12.8709 11.8755 12.8709C11.445 12.8709 11.4203 12.8612 11.4429 12.7015C11.4648 12.5477 11.5134 12.5301 11.9748 12.5099C12.421 12.4904 12.4827 12.4698 12.4827 12.3405C12.4827 12.2049 12.4269 12.1934 11.7679 12.1934H11.0532V13.059ZM16.2609 13.0778L16.2821 13.9622L16.5033 13.9875C17.5149 14.1027 18.1797 13.4053 17.7855 12.6426C17.6217 12.3258 17.3122 12.1934 16.7348 12.1934H16.2397L16.2609 13.0778ZM21.5862 13.059V13.9246H21.7742H21.9623V13.059V12.1934H21.7742H21.5862V13.059ZM25.6489 12.3816C25.6489 12.551 25.679 12.5698 25.9498 12.5698H26.2508V13.2472C26.2508 13.9196 26.2522 13.9246 26.4388 13.9246C26.6255 13.9246 26.6269 13.9196 26.6269 13.2472V12.5698H26.9279C27.1987 12.5698 27.2288 12.551 27.2288 12.3816V12.1934H26.4388H25.6489V12.3816ZM6.91865 12.7266C7.04391 12.9609 6.82287 13.1719 6.45219 13.1719C6.16486 13.1719 6.16291 13.1699 6.16291 12.8709V12.5698H6.49883C6.76223 12.5698 6.85281 12.6037 6.91865 12.7266ZM17.4063 12.7371C17.6982 13.1539 17.4414 13.6235 16.9216 13.6235H16.6206V13.0967V12.5698H16.9549C17.2151 12.5698 17.3152 12.6069 17.4063 12.7371Z" fill="#333333"/>
</svg>
