<svg width="32" height="13" viewBox="0 0 32 13" fill="none" xmlns="http://www.w3.org/2000/svg">
<path fill-rule="evenodd" clip-rule="evenodd" d="M23.942 0.118528C23.2592 0.378084 22.741 0.907134 22.3904 1.70253L22.1855 2.1673L22.165 3.97933C22.1525 5.08419 22.1718 5.93036 22.2145 6.14758C22.4315 7.25159 23.1875 8.09239 24.2291 8.38842C24.6965 8.52127 29.16 8.54429 29.7926 8.41716C31.0237 8.16969 31.9415 7.04938 31.9482 5.78607L31.9511 5.24193L30.4313 5.22277L28.9114 5.20353L28.7077 5.52651C28.3919 6.02725 28.2806 6.06421 27.0869 6.06421C25.4708 6.06421 25.2979 5.88503 25.2998 4.21179C25.3016 2.6069 25.484 2.39397 26.8876 2.35829C28.2127 2.32461 28.4904 2.42764 28.7602 3.05294L28.8717 3.31135L30.4358 3.33051L32 3.34975L31.9725 2.72152C31.9235 1.60407 31.4114 0.751758 30.4922 0.257959L30.0534 0.0222136L27.1681 0.00555331C24.5276 -0.00967682 24.2539 -9.52877e-05 23.942 0.118528ZM0.0290345 0.14999C0.011273 0.200542 0.00485004 0.787796 0.0147467 1.45492L0.0327704 2.66782L1.49027 2.68706L2.94783 2.70629L2.96493 5.51142L2.9821 8.31656H5.24326H7.50441L7.53718 5.52794L7.56995 2.73933L8.8113 2.70357L10.0526 2.66782L10.7259 1.45227C11.0963 0.78372 11.4004 0.196538 11.4017 0.147344C11.4053 0.0138478 0.0760272 0.0164221 0.0290345 0.14999ZM12.8299 0.361853C11.9928 1.34738 11.2713 2.96535 11.0742 4.29909C10.8752 5.64449 11.1909 7.57464 11.7168 8.22718C11.8228 8.35867 14.8126 8.42774 14.8119 8.29868C14.8117 8.26915 14.7231 8.10026 14.6147 7.92329C14.4129 7.59338 14.0257 6.58447 14.0257 6.38827C14.0257 6.29338 14.2093 6.27872 15.4003 6.27872H16.7748L16.793 7.29764L16.8112 8.31656L18.904 8.33543C20.5348 8.35016 21.0086 8.33436 21.0495 8.26393C21.1402 8.10805 21.1169 0.243515 21.0255 0.143768C20.966 0.0789153 19.9863 0.0579651 17.0174 0.0579651H13.088L12.8299 0.361853ZM16.7784 3.31135V3.91912H15.4676C14.7467 3.91912 14.1568 3.90511 14.1568 3.88802C14.1568 3.78148 14.3225 3.42161 14.5245 3.08962L14.7594 2.70357H15.7689H16.7784V3.31135ZM16.7784 4.84866C16.7784 4.89414 16.2528 4.92017 15.3327 4.92017C14.3855 4.92017 13.9009 4.8955 13.9274 4.84866C13.9524 4.80462 14.507 4.77716 15.3732 4.77716C16.2663 4.77716 16.7784 4.80319 16.7784 4.84866ZM0.0438467 9.54391C0.0197277 9.57015 0 10.3585 0 11.2959V13H15.9931H31.9862L31.9687 11.2661L31.9511 9.53211L16.0194 9.51409C7.25693 9.50415 0.0679002 9.51759 0.0438467 9.54391ZM8.36949 10.3881C8.59219 10.4578 8.48785 10.644 8.25459 10.5931C7.78912 10.4916 7.60273 10.7271 7.60273 11.4168C7.60273 11.9756 7.75419 12.1634 8.17784 12.1298C8.56643 12.0991 8.62437 12.2489 8.26475 12.3545C7.26945 12.6469 6.82836 10.7477 7.80551 10.3769C8.02343 10.2943 8.07246 10.2952 8.36949 10.3881ZM14.3036 10.4365C14.6386 10.6279 14.7603 11.5355 14.5132 11.9995C14.2216 12.5473 13.488 12.5063 13.223 11.9275C12.7936 10.9898 13.5194 9.9883 14.3036 10.4365ZM2.94933 10.4574C2.94933 10.5246 2.86433 10.568 2.70356 10.5825L2.45778 10.6047L2.43936 11.4806C2.42219 12.2974 2.41229 12.3565 2.29189 12.3565C2.17038 12.3565 2.16284 12.3041 2.16284 11.4627V10.5689H1.93345C1.77327 10.5689 1.70406 10.5366 1.70406 10.4616C1.70406 10.3738 1.81692 10.3544 2.3267 10.3544C2.82487 10.3544 2.94933 10.375 2.94933 10.4574ZM5.30415 10.837C5.3767 11.1025 5.50896 11.5529 5.59797 11.8381L5.75978 12.3565H5.60491C5.48563 12.3565 5.43241 12.2982 5.37329 12.1027C5.26056 11.7301 4.66309 11.7459 4.56413 12.1241C4.51851 12.2985 4.46627 12.3565 4.35472 12.3565C4.20758 12.3565 4.20922 12.346 4.51019 11.3554C4.80237 10.3939 4.82144 10.3544 4.99329 10.3544C5.1574 10.3544 5.18303 10.3942 5.30415 10.837ZM10.4865 10.7499C10.4865 11.3805 10.875 11.376 11.0674 10.7431C11.1577 10.4462 11.2033 10.3866 11.3549 10.3675C11.5425 10.344 11.606 10.4722 11.4409 10.5414C11.389 10.5631 11.3267 10.6827 11.3025 10.8073C11.2782 10.9318 11.2178 11.084 11.1683 11.1455C11.0911 11.2412 11.097 11.2977 11.2083 11.536C11.28 11.6893 11.3385 11.8711 11.3385 11.94C11.3385 12.009 11.4007 12.1017 11.4766 12.146C11.6468 12.2454 11.5521 12.3794 11.3364 12.3447C11.1727 12.3182 11.1357 12.2561 11.003 11.7844C10.9225 11.4982 10.8891 11.4602 10.6995 11.4403L10.4865 11.4179V11.8872C10.4865 12.3088 10.4732 12.3565 10.3554 12.3565C10.2306 12.3565 10.2244 12.3088 10.2244 11.3554C10.2244 10.4021 10.2306 10.3544 10.3554 10.3544C10.4707 10.3544 10.4865 10.4021 10.4865 10.7499ZM17.0361 10.9443C17.2608 11.8841 17.2552 11.8823 17.4611 11.0782C17.6398 10.3804 17.6531 10.3544 17.8306 10.3544C18.055 10.3544 18.0662 10.3919 18.1221 11.3197C18.1457 11.7129 18.1807 12.1071 18.1998 12.1956C18.227 12.3214 18.206 12.3565 18.1033 12.3565C17.945 12.3565 17.8928 12.2271 17.892 11.8322C17.8918 11.6683 17.8723 11.3601 17.8489 11.1472L17.8063 10.7603L17.5978 11.5405C17.3011 12.6506 17.1913 12.6552 16.934 11.5685C16.7303 10.7081 16.6721 10.7158 16.6542 11.6057C16.6424 12.1889 16.5937 12.3565 16.4358 12.3565C16.3246 12.3565 16.3105 12.3219 16.3414 12.1241C16.3614 11.9962 16.3965 11.6021 16.4194 11.2482C16.4745 10.3952 16.4878 10.3544 16.7101 10.3544C16.8868 10.3544 16.9015 10.3811 17.0361 10.9443ZM21.0386 10.4616C21.0386 10.5451 20.9512 10.5689 20.6453 10.5689H20.2521V10.8457V11.1225L20.5744 11.1692C21.0219 11.2339 21.1995 11.4063 21.1995 11.7759C21.1995 12.2095 21.0691 12.3126 20.4804 12.3451L19.9899 12.3721V11.3632V10.3544H20.5142C20.9366 10.3544 21.0386 10.3753 21.0386 10.4616ZM23.9658 11.3197C24.2959 12.4283 24.287 12.3565 24.0957 12.3565C23.9777 12.3565 23.927 12.3017 23.8806 12.1241C23.7846 11.7574 23.1701 11.727 23.0856 12.0847C23.0346 12.3003 22.7426 12.4875 22.7426 12.3045C22.7426 12.2539 23.1816 10.7836 23.2995 10.439C23.3183 10.3841 23.4063 10.3542 23.5104 10.3675C23.6777 10.3887 23.7064 10.4487 23.9658 11.3197ZM26.1508 10.7477V11.1409H26.4785H26.8062V10.7477C26.8062 10.4021 26.822 10.3544 26.9372 10.3544C27.0621 10.3544 27.0683 10.4021 27.0683 11.3554C27.0683 12.3088 27.0621 12.3565 26.9372 12.3565C26.8196 12.3565 26.8062 12.3088 26.8062 11.8917V11.4269H26.4785H26.1508V11.8917C26.1508 12.3398 26.1449 12.3565 25.9869 12.3565H25.823V11.3554V10.3544H25.9869C26.1418 10.3544 26.1508 10.3758 26.1508 10.7477ZM29.1656 10.7499C29.1656 11.1855 29.2318 11.263 29.5066 11.149C29.6302 11.0977 29.6858 11.0086 29.7204 10.8064C29.7792 10.4635 29.8608 10.3544 30.0584 10.3544C30.2292 10.3544 30.2701 10.4785 30.12 10.5414C30.0681 10.5631 30.0071 10.6732 29.9844 10.7861C29.9616 10.8989 29.8864 11.0698 29.8171 11.1659C29.713 11.3103 29.7075 11.3475 29.7854 11.3801C29.8373 11.4018 29.9131 11.558 29.9538 11.7272C29.9945 11.8963 30.0917 12.0891 30.1698 12.1554C30.2963 12.2629 30.2997 12.2811 30.2013 12.3224C29.9292 12.4363 29.8218 12.3259 29.6774 11.7844C29.6007 11.4969 29.569 11.4603 29.3786 11.4403L29.1656 11.4179V11.8872C29.1656 12.3088 29.1523 12.3565 29.0345 12.3565C28.9097 12.3565 28.9035 12.3088 28.9035 11.3554C28.9035 10.4021 28.9097 10.3544 29.0345 10.3544C29.1498 10.3544 29.1656 10.4021 29.1656 10.7499ZM13.5379 10.7278C13.3002 11.0979 13.4531 12.0828 13.7555 12.13C14.2538 12.2078 14.524 11.568 14.2837 10.8789C14.1597 10.5228 13.7259 10.4349 13.5379 10.7278ZM4.85899 11.0244C4.81928 11.1963 4.76842 11.3894 4.74587 11.4535C4.71231 11.5489 4.75144 11.5699 4.96327 11.5699H5.22156L5.11912 11.1409C4.99702 10.6295 4.95449 10.6105 4.85899 11.0244ZM23.3714 11.0464C23.2218 11.5254 23.2325 11.5699 23.4964 11.5699C23.7624 11.5699 23.7554 11.5961 23.6228 11.0983C23.4981 10.6302 23.5012 10.6308 23.3714 11.0464ZM20.2521 11.7804C20.2521 12.1314 20.2576 12.142 20.4414 12.142C20.9924 12.142 21.075 11.4839 20.5294 11.4407L20.2521 11.4187V11.7804Z" fill="#333333"/>
</svg>
