<svg width="55" height="11" viewBox="0 0 55 11" fill="none" xmlns="http://www.w3.org/2000/svg">
<path fill-rule="evenodd" clip-rule="evenodd" d="M0.0183485 3.10262C0.0468632 6.2117 0.0483396 6.23237 0.281071 6.78368C0.616141 7.57743 1.14648 8.33721 1.89081 9.08998C2.50364 9.70967 3.67643 10.6478 4.13045 10.8815L4.33808 10.9884V7.98302C4.33808 4.61065 4.30948 4.42331 3.61987 3.27612C3.21826 2.60816 1.75737 1.12809 0.905993 0.526763C-0.110198 -0.190938 -0.0145033 -0.468623 0.0183485 3.10262ZM8.94915 0.476006C7.36534 1.58841 6.00227 3.19989 5.6325 4.39729C5.46086 4.95284 5.44545 5.25046 5.44545 8.00148V11L5.74536 10.8103C7.53708 9.67663 9.00682 8.06801 9.53799 6.6591C9.722 6.17119 9.73685 5.93577 9.76445 3.06848C9.78161 1.27889 9.75909 0 9.71046 0C9.6646 0 9.32196 0.214193 8.94915 0.476006ZM50.8474 5.54153V8.96041L51.4241 8.933L52.0009 8.9055L52.0269 7.82115L52.0528 6.7368H52.4089C52.9436 6.7368 53.1199 6.94666 53.4553 7.98265L53.7542 8.9055L54.3771 8.93282C54.8392 8.95303 55 8.92922 55 8.84072C55 8.77501 54.851 8.2644 54.6687 7.70598C54.4176 6.93623 54.2661 6.62218 54.0422 6.40735L53.747 6.12403L53.9601 5.96327C54.1587 5.81349 54.9077 4.457 54.9077 4.24714C54.9077 4.19214 54.6453 4.15282 54.2775 4.15282H53.6474L53.4245 4.62855C53.0968 5.32835 52.7823 5.62938 52.3791 5.62938H52.047V3.87597V2.12255H51.4472H50.8474V5.54153ZM35.0171 2.42303C34.9927 2.4868 34.9837 3.97148 34.997 5.72222L35.0213 8.9055L36.8208 8.90485C38.5008 8.90421 38.6457 8.89064 39.0037 8.6998C39.4965 8.43706 39.7425 8.11831 39.9178 7.5155C40.1184 6.8253 39.8743 6.0371 39.3393 5.64729L39.0829 5.4605L39.3472 5.25258C39.834 4.86969 40.0109 4.0323 39.7413 3.38704C39.5514 2.93254 39.0283 2.52519 38.4846 2.40864C37.7998 2.26172 35.0747 2.27307 35.0171 2.42303ZM12.9202 4.90024C12.9202 7.70257 12.9326 7.76846 13.5718 8.34598C14.5683 9.24622 16.7303 9.09791 17.4864 8.07734C17.8672 7.56331 17.9033 7.27815 17.9033 4.78507V2.39941H17.2573H16.6114L16.611 4.68346C16.6107 6.81155 16.598 6.98837 16.4244 7.27298C15.9474 8.05537 14.6598 7.98551 14.2662 7.15578C14.1451 6.9007 14.1198 6.46272 14.1198 4.62338V2.39941H13.52H12.9202V4.90024ZM38.3978 3.77086C38.6267 4.05371 38.6222 4.43549 38.387 4.68798C38.1393 4.95386 37.9301 4.99723 37.0512 4.96465L36.3132 4.93725L36.2854 4.34708C36.2436 3.46096 36.2149 3.48459 37.2908 3.52123C38.1379 3.55011 38.2374 3.57254 38.3978 3.77086ZM20.948 4.23357C20.8207 4.27529 20.5788 4.38068 20.4103 4.46789C20.1122 4.622 20.1025 4.62117 20.0541 4.43568C20.0108 4.2703 19.9324 4.24511 19.4613 4.24511H18.9184V6.55223V8.85936H19.5182H20.118V7.25572V5.65209L20.5734 5.45616C21.135 5.21456 21.3285 5.21087 21.6073 5.43651C21.8191 5.60779 21.826 5.65799 21.8542 7.23607L21.8833 8.85936H22.4855H23.0877L23.0547 7.03673C23.0248 5.38437 23.0031 5.17959 22.8233 4.84496C22.7142 4.64193 22.5317 4.41934 22.4177 4.35041C22.1684 4.19934 21.27 4.12791 20.948 4.23357ZM25.1934 4.25581C24.732 4.3947 24.298 4.75268 24.0852 5.16962C23.9322 5.46955 23.9018 5.71152 23.903 6.61776C23.9049 7.95413 24.0503 8.29605 24.7756 8.66934C25.4312 9.00683 26.5196 9.00849 27.1723 8.67294C27.4211 8.54503 27.6376 8.39969 27.6534 8.34994C27.6691 8.3002 27.5411 8.09339 27.3687 7.89037L27.0554 7.52123L26.7792 7.68272C26.3576 7.92931 25.5571 7.90245 25.3042 7.63317C25.1952 7.51707 25.0945 7.31986 25.0805 7.19481L25.055 6.96752L26.4714 6.94195L27.8878 6.91648L27.8556 6.09681C27.8261 5.34459 27.8002 5.24788 27.5407 4.92257C27.3851 4.72767 27.1035 4.49142 26.9148 4.39756C26.5025 4.19269 25.6392 4.12154 25.1934 4.25581ZM41.8094 4.30509C41.5839 4.384 41.3033 4.51154 41.1857 4.58859L40.972 4.72868L41.1721 5.06368C41.474 5.5694 41.4883 5.5765 41.8544 5.40282C42.0556 5.30731 42.4193 5.24077 42.7528 5.23847C43.2254 5.23505 43.3395 5.26698 43.4814 5.44214C43.5738 5.55639 43.6495 5.74437 43.6495 5.85982C43.6495 6.06248 43.6159 6.07115 42.703 6.10493C41.9619 6.13234 41.6865 6.18079 41.4344 6.32798C40.9917 6.58656 40.6965 7.05214 40.6965 7.49169C40.6965 8.69592 41.7798 9.26689 43.0732 8.74446L43.6362 8.51707L43.6919 8.73883C43.7436 8.94518 43.7845 8.95875 44.2753 8.93309L44.803 8.9055L44.8283 7.30851C44.843 6.3816 44.8122 5.55832 44.7552 5.34625C44.6229 4.85484 44.1987 4.39295 43.7586 4.26107C43.2594 4.11148 42.3007 4.13307 41.8094 4.30509ZM47.8016 4.23902C47.6743 4.27778 47.4324 4.38068 47.2639 4.46789C46.9658 4.622 46.9561 4.62117 46.9077 4.43568C46.8644 4.2703 46.7859 4.24511 46.3148 4.24511H45.772V6.60281V8.96041L46.3487 8.933L46.9255 8.9055L46.9507 7.27787L46.9758 5.65033L47.4291 5.45524C47.9827 5.21715 48.1826 5.21133 48.4474 5.42571C48.6435 5.58453 48.6522 5.65725 48.6652 7.24834L48.6788 8.9055H49.2786H49.8784V7.0598C49.8784 5.33463 49.8652 5.18928 49.6754 4.83463C49.3602 4.24539 48.5877 3.99991 47.8016 4.23902ZM28.5327 4.54504C29.1638 5.39147 29.8997 6.45081 29.8997 6.51283C29.8997 6.5515 29.5468 7.07226 29.1154 7.67017C28.6839 8.268 28.331 8.78008 28.331 8.80823C28.331 8.83638 28.6342 8.85936 29.0048 8.85936H29.6786L30.0891 8.1699C30.3148 7.79061 30.5278 7.47914 30.5622 7.47776C30.5966 7.47628 30.8189 7.78654 31.0562 8.16722L31.4876 8.85936H32.1808H32.8739L32.7079 8.60594C32.6166 8.4665 32.2396 7.94122 31.8703 7.43854L31.1988 6.52464L31.3993 6.23856C31.5096 6.08112 31.8821 5.56829 32.2271 5.09874L32.8542 4.24511H32.1375H31.4208L31.0513 4.86074C30.8481 5.19934 30.6408 5.48957 30.5907 5.50581C30.5406 5.52206 30.3335 5.24539 30.1304 4.89101L29.7613 4.24677L29.0352 4.24594L28.3091 4.24511L28.5327 4.54504ZM26.4318 5.45552C26.6101 5.59579 26.6721 5.71936 26.6519 5.89387C26.6252 6.12514 26.5947 6.13833 26.0268 6.16491C25.1905 6.20413 25.0231 6.15024 25.0787 5.85945C25.1829 5.31423 25.9581 5.08287 26.4318 5.45552ZM38.3509 6.30454C38.55 6.47582 38.5993 6.5981 38.5993 6.92137C38.5993 7.24465 38.55 7.36693 38.3509 7.53821C38.1295 7.72868 38.0085 7.75194 37.2407 7.75194C36.5401 7.75194 36.3687 7.72462 36.3231 7.60594C36.2472 7.40827 36.2517 6.22924 36.3286 6.15236C36.3624 6.11849 36.7754 6.09081 37.2463 6.09081C38.0082 6.09081 38.1297 6.11434 38.3509 6.30454ZM43.6495 7.27344C43.6495 7.47988 43.5826 7.56506 43.3234 7.68872C42.945 7.86914 42.26 7.89424 42.0992 7.73348C42.0383 7.67257 41.9885 7.53553 41.9885 7.42894C41.9885 7.09385 42.1703 7.01366 42.9297 7.01366H43.6495V7.27344Z" fill="#333333"/>
</svg>
