<svg width="113" height="36" viewBox="0 0 113 36" fill="none" xmlns="http://www.w3.org/2000/svg">
<rect width="113" height="36" rx="15" fill="white"/>
<path d="M26.4082 24.2905C24.7425 24.2905 23.4255 23.7288 22.457 22.6055C21.4886 21.4821 21.0044 19.952 21.0044 18.0151C21.0044 16.0728 21.4886 14.5399 22.457 13.4165C23.4199 12.2931 24.7342 11.7314 26.3999 11.7314C27.717 11.7314 28.8403 12.1188 29.77 12.8936C30.6942 13.6628 31.231 14.6589 31.3804 15.8818H29.5293C29.3522 15.1458 28.9842 14.5592 28.4253 14.1221C27.8608 13.6849 27.1857 13.4663 26.3999 13.4663C25.3263 13.4663 24.4741 13.8758 23.8433 14.6948C23.2179 15.5083 22.9053 16.6151 22.9053 18.0151C22.9053 19.4097 23.2207 20.5137 23.8516 21.3271C24.4769 22.1462 25.3291 22.5557 26.4082 22.5557C27.1995 22.5557 27.8774 22.3564 28.4419 21.958C29.0008 21.5596 29.3633 21.0228 29.5293 20.3477H31.3804C31.2144 21.5319 30.6776 22.4837 29.77 23.2031C28.8625 23.9281 27.7419 24.2905 26.4082 24.2905ZM33.6216 14.9604H35.3398V16.3467H35.4727C35.5999 15.8984 35.8905 15.5304 36.3442 15.2427C36.798 14.9549 37.3182 14.811 37.9048 14.811C38.2424 14.811 38.5052 14.8359 38.6934 14.8857V16.6455C38.4886 16.5736 38.1593 16.5376 37.7056 16.5376C37.0304 16.5376 36.4798 16.734 36.0537 17.127C35.6221 17.5199 35.4062 18.0317 35.4062 18.6626V24H33.6216V14.9604ZM43.8896 16.3052C43.2311 16.3052 42.6888 16.5182 42.2627 16.9443C41.8366 17.3704 41.5986 17.9377 41.5488 18.646H46.1143C46.0921 17.9321 45.8818 17.3649 45.4834 16.9443C45.0794 16.5182 44.5482 16.3052 43.8896 16.3052ZM47.8242 21.5596C47.6195 22.373 47.174 23.0122 46.4878 23.4771C45.7961 23.9419 44.9355 24.1743 43.9062 24.1743C42.6113 24.1743 41.5931 23.7565 40.8516 22.9209C40.1045 22.0908 39.731 20.9536 39.731 19.5093C39.731 18.0649 40.1073 16.9167 40.8599 16.0645C41.6125 15.2122 42.6252 14.7861 43.8979 14.7861C45.1541 14.7861 46.1419 15.1901 46.8613 15.998C47.5752 16.806 47.9321 17.9211 47.9321 19.3433V19.9658H41.5488V20.0654C41.5765 20.8623 41.8062 21.4932 42.2378 21.958C42.6694 22.4229 43.2422 22.6553 43.9561 22.6553C45.0462 22.6553 45.7629 22.29 46.106 21.5596H47.8242ZM53.3774 24.1494C52.2264 24.1494 51.3133 23.7288 50.6382 22.8877C49.9631 22.0465 49.6255 20.9093 49.6255 19.4761C49.6255 18.0483 49.9658 16.9139 50.6465 16.0728C51.3216 15.2316 52.2319 14.811 53.3774 14.811C53.9972 14.811 54.5534 14.9494 55.0459 15.2261C55.5384 15.5083 55.9064 15.8984 56.1499 16.3965H56.2827V11.4326H58.0674V24H56.3574V22.5723H56.2163C55.6408 23.6237 54.6945 24.1494 53.3774 24.1494ZM53.8838 16.4131C53.1312 16.4131 52.5418 16.687 52.1157 17.2349C51.6841 17.7772 51.4683 18.5243 51.4683 19.4761C51.4683 20.4334 51.6813 21.186 52.1074 21.7339C52.5391 22.2762 53.1312 22.5474 53.8838 22.5474C54.6364 22.5474 55.2285 22.2734 55.6602 21.7256C56.0973 21.1777 56.3159 20.4307 56.3159 19.4844C56.3159 18.5436 56.0973 17.7965 55.6602 17.2432C55.223 16.6898 54.6309 16.4131 53.8838 16.4131ZM60.7817 14.9604H62.5581V24H60.7817V14.9604ZM61.6699 13.375C61.3379 13.375 61.064 13.2699 60.8481 13.0596C60.6268 12.8548 60.5161 12.5975 60.5161 12.2876C60.5161 11.9777 60.6268 11.7176 60.8481 11.5073C61.064 11.297 61.3379 11.1919 61.6699 11.1919C62.002 11.1919 62.2786 11.297 62.5 11.5073C62.7158 11.7176 62.8237 11.9777 62.8237 12.2876C62.8237 12.5975 62.7158 12.8548 62.5 13.0596C62.2786 13.2699 62.002 13.375 61.6699 13.375ZM67.5967 12.769V15.002H69.6221V16.5044H67.5967V21.1528C67.5967 21.6232 67.6991 21.9691 67.9038 22.1904C68.1086 22.4062 68.4323 22.5142 68.875 22.5142C69.041 22.5142 69.2624 22.5003 69.5391 22.4727V23.9585C69.196 24.0194 68.8778 24.0498 68.5845 24.0498C67.5939 24.0498 66.8828 23.8617 66.4512 23.4854C66.0251 23.109 65.812 22.4837 65.812 21.6094V16.5044H64.3262V15.002H65.812V12.769H67.5967ZM71.5562 15.4834C71.5562 14.3822 71.9325 13.4801 72.6851 12.7773C73.4377 12.0801 74.4033 11.7314 75.582 11.7314C76.722 11.7314 77.6655 12.0552 78.4126 12.7026C79.1597 13.3501 79.5332 14.1663 79.5332 15.1514C79.5332 15.7878 79.3478 16.4159 78.9771 17.0356C78.6007 17.661 77.9118 18.48 76.9102 19.4927L74.2456 22.1904V22.3315H79.7241V24H71.6558V22.6553L75.7065 18.4385C76.5034 17.6084 77.0347 16.9803 77.3003 16.5542C77.5659 16.1336 77.6987 15.702 77.6987 15.2593C77.6987 14.7114 77.4912 14.2549 77.0762 13.8896C76.6611 13.5244 76.1437 13.3418 75.5239 13.3418C74.8654 13.3418 74.3314 13.5382 73.9219 13.9312C73.5179 14.3241 73.3159 14.8415 73.3159 15.4834V15.5083H71.5562V15.4834ZM87.6763 21.6841H81.8325V19.9575C82.7622 18.2586 84.4251 15.6134 86.8213 12.022H89.4692V20.0239H91.1211V21.6841H89.4692V24H87.6763V21.6841ZM83.6172 20.0654H87.7012V13.6572H87.5933C86.1877 15.6937 84.8623 17.791 83.6172 19.9492V20.0654Z" fill="#333333"/>
</svg>
